<?xml version="1.0" encoding="UTF-8" standalone="no"?>
<!-- Created with Inkscape (http://www.inkscape.org/) -->

<svg
   width="300"
   height="300"
   viewBox="0 0 79.374994 79.375"
   version="1.1"
   id="svg5"
   inkscape:version="1.1 (c68e22c387, 2021-05-23)"
   sodipodi:docname="dogemultiverse_ticker.svg"
   xmlns:inkscape="http://www.inkscape.org/namespaces/inkscape"
   xmlns:sodipodi="http://sodipodi.sourceforge.net/DTD/sodipodi-0.dtd"
   xmlns="http://www.w3.org/2000/svg"
   xmlns:svg="http://www.w3.org/2000/svg">
  <sodipodi:namedview
     id="namedview7"
     pagecolor="#ffffff"
     bordercolor="#666666"
     borderopacity="1.0"
     inkscape:pageshadow="2"
     inkscape:pageopacity="0.0"
     inkscape:pagecheckerboard="0"
     inkscape:document-units="px"
     showgrid="true"
     inkscape:zoom="1.8188599"
     inkscape:cx="187.75498"
     inkscape:cy="168.51216"
     inkscape:window-width="1920"
     inkscape:window-height="1017"
     inkscape:window-x="1358"
     inkscape:window-y="-8"
     inkscape:window-maximized="1"
     inkscape:current-layer="layer1"
     units="px"
     width="49px">
    <inkscape:grid
       type="xygrid"
       id="grid7414"
       visible="true" />
  </sodipodi:namedview>
  <defs
     id="defs2" />
  <g
     inkscape:label="Layer 1"
     inkscape:groupmode="layer"
     id="layer1">
    <g
       id="g3885"
       transform="matrix(0.827019,0,0,0.827019,-16.828012,-17.529019)">
      <path
         style="fill:#f5a54b;stroke-width:0.159077"
         d="m 35.705176,104.39801 c -1.099311,-0.55683 -1.602279,-1.12919 -2.123688,-2.41669 l -0.443454,-1.09501 -6.002719,-0.0795 -6.00272,-0.0795 -0.225661,-0.30879 c -0.279587,-0.38258 -0.279587,-0.431534 0,-0.814115 l 0.225661,-0.30879 6.017547,-0.07954 6.017546,-0.07954 0.11179,-0.89568 c 0.389014,-3.116857 2.360633,-5.81442 5.040758,-6.896749 1.559622,-0.629829 1.526009,-0.600445 1.567936,-1.370717 0.192129,-3.529808 1.040553,-6.44597 2.390883,-8.217828 l 0.395361,-0.518778 -0.180492,-1.469688 c -0.536567,-4.369063 -0.680673,-6.513117 -0.69219,-10.29848 -0.01653,-5.433165 0.427801,-7.789467 1.743492,-9.24578 0.694549,-0.768783 1.492968,-1.003813 2.986112,-0.879023 2.666247,0.222833 6.714943,2.227903 11.004772,5.449984 l 1.804021,1.354997 1.788084,-0.162059 c 1.949343,-0.176673 12.379475,-0.131578 13.808957,0.05971 l 0.885456,0.118484 1.262088,-0.942697 c 6.113605,-4.566469 10.724525,-6.551833 13.420577,-5.778616 1.136856,0.326047 1.988793,1.622629 2.497073,3.800359 0.520325,2.229329 0.467883,9.394192 -0.108433,14.814822 -0.08837,0.831179 -0.203578,1.916533 -0.256015,2.4119 -0.08053,0.760727 -0.04239,0.975026 0.245457,1.37927 1.18543,1.664781 1.906401,3.915109 2.143584,6.690631 0.136436,1.596593 0.241815,2.161209 0.420655,2.253857 0.131238,0.06799 0.799301,0.379284 1.484582,0.691769 2.312269,1.054382 4.120804,3.388942 4.574724,5.905303 0.0942,0.522295 0.22068,1.12859 0.28104,1.347321 l 0.10975,0.397693 6.09393,0.07954 6.09392,0.07954 0.22567,0.30879 c 0.27959,0.382581 0.27959,0.43153 0,0.81411 l -0.22567,0.30879 -6.1703,0.0795 -6.17029,0.0795 -0.188,0.64965 c -0.29793,1.02955 -0.63807,1.57478 -1.40183,2.24706 -0.690052,0.60741 -1.596469,1.00068 -2.306391,1.00068 -0.320316,0 -1.194233,-0.40209 -1.771183,-0.81493 -0.190199,-0.1361 -0.380514,-0.0833 -0.851156,0.23608 -0.75342,0.51128 -1.418139,0.64122 -2.775662,0.54259 -1.344307,-0.0977 -2.571491,-0.62474 -3.279656,-1.4086 l -0.552397,-0.61143 -1.038331,0.008 c -1.180858,0.009 -1.675978,-0.22574 -2.703907,-1.28228 l -0.628825,-0.64633 h -4.735147 -4.735146 l -0.541781,0.83516 c -0.998417,1.53906 -2.051165,2.29445 -3.91904,2.81206 -2.116627,0.58655 -4.839491,0.40197 -6.788507,-0.46017 -0.857313,-0.37923 -2.146335,-1.57541 -2.6812,-2.48809 l -0.40962,-0.69896 h -4.888872 -4.888872 l -0.667583,0.70941 c -0.929092,0.98731 -1.502391,1.24865 -2.694575,1.22833 -0.847287,-0.0144 -1.032193,0.0348 -1.276099,0.33993 -0.913004,1.1421 -2.562972,1.76763 -4.415712,1.67407 -0.946839,-0.0478 -1.266637,-0.13775 -1.797209,-0.50544 l -0.64542,-0.44728 -0.647701,0.42863 c -0.932686,0.61722 -1.813196,0.66849 -2.809972,0.16359 z m 1.929893,-1.50464 c 0.298066,-0.18176 0.650717,-0.63931 0.902331,-1.17072 0.467536,-0.98746 0.793128,-1.1914 1.335104,-0.83628 0.29137,0.19091 0.37528,0.38896 0.37528,0.88576 0,0.95859 0.528727,1.42106 1.623312,1.41991 1.109615,-0.001 1.916543,-0.23774 2.507759,-0.73521 0.426736,-0.35908 0.482171,-0.50404 0.482171,-1.26091 0,-0.68269 0.06206,-0.88841 0.307697,-1.01986 0.464412,-0.248549 0.594502,-0.210285 1.242849,0.36557 0.820231,0.72851 1.073372,0.78985 1.77739,0.43069 0.834449,-0.42571 1.161579,-1.17146 1.161579,-2.648044 0,-4.100859 -3.799175,-6.800954 -8.498846,-6.040176 -1.711,0.276976 -2.949506,0.861544 -3.954433,1.86647 -1.37953,1.37953 -2.063451,3.19902 -2.051125,5.456772 0.01042,1.908058 0.453596,2.898708 1.504252,3.362478 0.630184,0.27817 0.711033,0.27336 1.28468,-0.0764 z m 56.648982,-0.0463 c 0.244484,-0.22969 0.368176,-0.52714 0.368176,-0.88539 0,-1.50671 1.102221,-1.70699 1.71913,-0.31237 0.313412,0.70853 1.158493,1.54364 1.562061,1.54364 0.354714,0 1.053136,-0.40175 1.425614,-0.82004 0.583577,-0.65536 0.781908,-1.40522 0.771848,-2.918278 -0.0115,-1.726857 -0.334523,-2.883214 -1.162887,-4.162697 -1.039864,-1.606166 -2.407638,-2.536012 -4.312794,-2.931945 -1.309076,-0.272054 -4.021539,-0.104563 -5.093446,0.314515 -2.422835,0.947242 -3.970428,3.128582 -3.975212,5.603079 -0.003,1.529875 0.425938,2.383896 1.405265,2.798206 0.474009,0.20053 0.578151,0.19532 0.954464,-0.0477 0.232321,-0.15002 0.58005,-0.44015 0.772731,-0.64473 0.701832,-0.745179 1.319984,-0.38715 1.319984,0.76452 0,1.32195 1.010002,2.02386 2.932678,2.03808 0.7566,0.006 1.017366,-0.0618 1.312388,-0.3389 z m -34.318131,-5.182058 -0.0074,-1.551004 -0.802618,-0.55677 c -1.580078,-1.096091 -3.066718,-3.298667 -3.489523,-5.170013 -0.09884,-0.437463 -0.392422,-1.242566 -0.652407,-1.789117 -0.728397,-1.531267 -0.545091,-1.707139 0.58485,-0.561126 0.822961,0.834667 1.059574,0.983688 1.717655,1.081791 1.637534,0.244113 3.686353,-0.465085 5.378439,-1.861749 1.166461,-0.962808 2.218481,-1.476319 3.375708,-1.647745 0.601506,-0.0891 0.806664,-0.1984 0.945858,-0.503895 0.250186,-0.5491 0.02464,-0.822952 -0.989326,-1.201193 -1.653839,-0.616937 -3.602427,-3.031422 -3.89884,-4.831033 -0.09997,-0.606965 -0.01341,-0.944075 0.519788,-2.024465 0.03667,-0.07431 -0.103764,-0.02343 -0.312087,0.113068 -0.560625,0.367335 -1.426147,1.587496 -2.272474,3.203593 -1.121597,2.141737 -3.140496,4.056471 -4.277153,4.056471 -0.25628,0 -0.868632,0.168944 -1.360781,0.375429 -0.49215,0.206486 -1.431187,0.602024 -2.086751,0.878971 -2.235399,0.944366 -3.780202,1.939162 -5.425721,3.493965 -0.865731,0.818004 -1.533041,1.553644 -1.48291,1.634758 0.05013,0.08111 0.568948,0.376769 1.152926,0.657011 1.353845,0.649691 2.983716,2.235695 3.59936,3.502485 0.49497,1.018488 0.868441,2.541128 0.876991,3.575494 l 0.0056,0.676078 h 4.454165 4.454165 l -0.0074,-1.551004 z m 24.048945,0.198847 c 0.122951,-1.559155 0.579104,-2.801488 1.475954,-4.019774 0.807902,-1.097456 1.571015,-1.727365 2.906035,-2.398776 0.540455,-0.271806 1.028423,-0.568266 1.084376,-0.658797 C 89.663169,90.492107 87.117422,88.16227 85.563567,87.201095 83.841332,86.135763 80.744119,84.761041 79.689599,84.593887 78.188202,84.3559 76.212005,82.480798 75.011857,80.155446 74.591029,79.340068 73.891421,78.284192 73.457174,77.809055 72.594003,76.864608 72.14747,76.647067 72.7187,77.449287 c 1.225177,1.720603 -0.942382,5.427997 -3.836534,6.56201 -0.845962,0.331472 -0.954187,0.469294 -0.805542,1.025823 0.09686,0.362651 0.23806,0.442529 1.054993,0.596815 1.380595,0.26074 1.746145,0.442685 3.346926,1.665869 1.526908,1.166735 2.622889,1.659658 4.066729,1.829032 1.285529,0.150803 2.10989,-0.139945 3.006377,-1.060334 0.41963,-0.430818 0.803404,-0.783305 0.852831,-0.783305 0.222781,0 0.04425,0.773792 -0.311978,1.352157 -0.215551,0.34997 -0.39228,0.793109 -0.392728,0.984753 -0.0013,0.565994 -0.797551,2.609719 -1.359291,3.48898 -0.596191,0.933189 -1.403534,1.778668 -2.355691,2.46697 l -0.660459,0.477437 -0.07954,1.424663 c -0.04375,0.783564 -0.0553,1.495817 -0.02567,1.582781 0.0344,0.100976 1.615372,0.142833 4.374627,0.11582 l 4.320756,-0.0423 z m 4.910579,-20.83289 c 0,-0.127807 0.07065,-0.933136 0.157006,-1.78962 0.503618,-4.995069 0.470418,-10.447104 -0.06863,-11.269791 -0.257209,-0.392551 -0.340515,-0.419352 -1.015788,-0.326794 -0.40458,0.05545 -1.199039,0.317695 -1.765466,0.582757 -1.421526,0.665212 -5.725686,3.369073 -5.732588,3.601196 -0.0031,0.104253 0.406638,0.506787 0.91053,0.894523 1.324326,1.019046 2.851712,2.695293 4.177219,4.584343 2.040039,2.907362 2.862399,3.955763 3.102881,3.955763 0.129158,0 0.234832,-0.104569 0.234832,-0.232377 z M 47.686279,75.847083 c 0.502185,-0.691441 1.374999,-1.916688 1.939585,-2.722772 1.257576,-1.795493 2.854795,-3.524075 4.039406,-4.371622 0.765645,-0.54779 1.177505,-0.995785 1.022525,-1.112235 -0.02393,-0.01798 -1.104117,-0.693765 -2.400411,-1.501741 -2.754246,-1.716711 -4.050262,-2.354576 -5.067254,-2.493969 -0.666235,-0.09132 -0.760466,-0.06288 -0.999289,0.301612 -0.584477,0.892024 -0.665258,4.206359 -0.241217,9.896808 0.205418,2.756633 0.293178,3.261085 0.567327,3.261085 0.124445,0 0.637143,-0.565724 1.139328,-1.257166 z M 58.988624,75.23509 c -0.02949,-0.153112 -0.159028,-0.278385 -0.287871,-0.278385 -0.128843,0 -0.258385,0.125273 -0.287871,0.278385 -0.03762,0.195323 0.04828,0.278385 0.287871,0.278385 0.239594,0 0.325486,-0.08306 0.287871,-0.278385 z m 19.1991,-0.03977 c 0,-0.128843 -0.125273,-0.258385 -0.278385,-0.287871 -0.195323,-0.03762 -0.278385,0.04828 -0.278385,0.287871 0,0.239594 0.08306,0.325486 0.278385,0.287871 0.153112,-0.02949 0.278385,-0.159028 0.278385,-0.287871 z M 62.28703,73.40023 c 0.562287,-0.48366 0.584818,-1.396734 0.04864,-1.971291 -0.868631,-0.930807 -2.344116,-1.270297 -3.322357,-0.764428 -0.90617,0.468597 -0.751065,1.806509 0.290717,2.507693 0.763599,0.513949 0.919891,0.563829 1.813782,0.578862 0.560563,0.0094 0.852078,-0.07804 1.169218,-0.350836 z m 13.315539,-0.10477 c 1.258595,-0.798176 1.523039,-1.859782 0.636897,-2.556821 -0.811326,-0.638189 -2.773028,-0.220436 -3.53929,0.753709 -0.31609,0.401843 -0.421765,1.241027 -0.19703,1.564649 0.579138,0.833971 1.989324,0.942468 3.099423,0.238463 z M 46.671588,52.383192 c -0.851911,-0.396672 -1.33333,-0.910661 -1.33333,-1.423543 0,-0.166805 0.178962,-0.799406 0.397693,-1.40578 0.422091,-1.170133 0.498506,-1.719847 0.239074,-1.719847 -0.276365,0 -1.361352,-1.0751 -1.677573,-1.662287 -0.167289,-0.310638 -0.358013,-0.564796 -0.423832,-0.564796 -0.06582,0 -0.258228,0.268443 -0.427577,0.59654 -0.40374,0.782204 -1.379161,1.712103 -2.119378,2.020468 -0.765079,0.318724 -2.713604,0.320503 -3.64446,0.0033 -1.051751,-0.358368 -1.808758,-1.066986 -2.380476,-2.228307 -0.278437,-0.565587 -0.528865,-1.02834 -0.556506,-1.02834 -0.02764,0 -0.192263,0.321026 -0.365824,0.713392 -0.449182,1.015446 -1.685965,2.196481 -2.647849,2.528493 -1.124656,0.388201 -3.034265,0.487366 -5.243955,0.272323 -2.47667,-0.241025 -2.470647,-0.235336 -2.583129,-2.43927 l -0.08512,-1.66777 0.339891,-0.339891 c 0.18694,-0.186939 0.483061,-0.339891 0.658046,-0.339891 h 0.318154 v -2.47069 c 0,-2.214218 -0.0289,-2.479621 -0.278385,-2.556716 -0.824025,-0.25463 -0.934966,-0.514531 -1.09692,-2.569745 -0.124084,-1.574647 0.03141,-1.837605 1.239848,-2.096769 1.224763,-0.262665 5.488221,-0.215556 6.454222,0.07132 1.683787,0.500031 3.225768,2.486835 3.474379,4.47665 0.05876,0.470289 0.15773,0.886526 0.219934,0.92497 0.0622,0.03845 0.387103,-0.257898 0.721997,-0.658539 0.876984,-1.049153 1.966029,-1.509967 3.585229,-1.517038 1.051907,-0.0046 1.410733,0.06534 2.122844,0.413746 0.752552,0.368189 1.76612,1.374425 2.076562,2.06154 0.05315,0.117637 0.155384,0.07536 0.286346,-0.118412 1.275914,-1.887836 2.054859,-2.367508 3.768443,-2.320598 0.620411,0.01698 1.360673,0.0209 1.645023,0.0087 0.284351,-0.01219 1.381814,-0.05958 2.438807,-0.105316 2.219453,-0.09603 2.267136,-0.07223 2.430065,1.212818 l 0.102294,0.80681 0.619446,-0.742232 c 0.846539,-1.014339 1.917111,-1.498176 3.319452,-1.500203 1.393991,-0.002 2.257194,0.399933 3.293163,1.533447 0.874384,0.956716 1.061129,1.531833 0.883648,2.721379 -0.177427,1.189179 -0.484456,1.742194 -1.277651,2.301288 l -0.737243,0.519658 0.52106,0.106568 c 0.948981,0.194087 1.057163,0.567204 0.75449,2.602231 -0.247489,1.663998 -0.318629,1.715255 -2.274476,1.638788 -1.937831,-0.07576 -3.040639,-0.511353 -4.128513,-1.630694 -1.054122,-1.08461 -1.429086,-1.97652 -1.527127,-3.632508 -0.04541,-0.766955 -0.154001,-1.411218 -0.24132,-1.431696 -0.102177,-0.02396 -0.158874,1.295158 -0.159077,3.701083 l -3.19e-4,3.738317 -0.354573,0.768264 c -0.916967,1.986819 -2.165238,2.811951 -4.250133,2.809422 -1.013769,-0.0013 -1.451086,-0.08068 -2.095368,-0.380672 z M 29.962009,43.530404 c 0.232392,-0.182799 0.49514,-0.620699 0.596558,-0.994233 0.227756,-0.838846 0.08468,-2.719567 -0.245187,-3.22301 -0.289584,-0.441961 -0.823784,-0.760908 -1.045219,-0.624054 -0.168718,0.104274 -0.221596,4.493239 -0.05923,4.916355 0.126742,0.330284 0.253881,0.317612 0.75308,-0.07506 z m 10.135661,-0.0082 c 0.373348,-0.697606 -0.217816,-1.93652 -0.7632,-1.599454 -0.271351,0.167703 -0.522898,0.939442 -0.409686,1.2569 0.264197,0.740836 0.865713,0.916515 1.172886,0.342554 z m 8.577642,-0.05849 c 0.430886,-0.519184 0.138404,-1.833688 -0.408005,-1.833688 -0.516311,0 -0.709671,1.12279 -0.295254,1.714455 0.290196,0.414312 0.437624,0.439307 0.703259,0.119236 z m 51.775348,5.10103 C 99.209142,48.023952 98.62727,46.560741 98.483695,43.61847 l -0.09315,-1.908928 -0.346372,-0.04932 c -0.610293,-0.0869 -0.70164,-0.383389 -0.653609,-2.12145 l 0.04552,-1.647084 0.59654,-0.291487 c 0.546478,-0.267025 0.596737,-0.347122 0.598885,-0.954464 0.0048,-1.347435 0.433832,-1.646859 2.740491,-1.912446 1.28905,-0.148421 1.55225,0.130873 1.55225,1.647163 v 1.113541 h 0.77073 c 1.1228,0 1.29784,0.25973 1.29493,1.921454 -0.003,1.864825 -0.15559,2.114301 -1.35217,2.214556 -1.04976,0.08796 -1.14694,0.210474 -0.95949,1.209672 l 0.1016,0.541591 0.59136,-0.09456 c 0.45563,-0.07286 0.65086,-0.02738 0.85061,0.198141 0.35261,0.398107 1.24766,2.546518 1.24766,2.994797 0,0.897211 -2.29952,2.313526 -3.73831,2.302489 -0.43746,-0.0034 -1.01369,-0.101188 -1.28051,-0.217406 z M 70.04004,48.324106 c -1.753173,-0.123901 -1.857711,-0.237406 -1.930134,-2.095733 -0.04669,-1.198106 -0.0097,-1.486635 0.223502,-1.744346 0.153697,-0.16983 0.411523,-0.308784 0.572949,-0.308784 h 0.293499 V 41.17002 38.164796 l -0.370421,-0.09297 c -0.559127,-0.140331 -0.74312,-0.751793 -0.74312,-2.469588 0,-2.101107 -0.01974,-2.085174 2.583391,-2.085174 h 2.001569 l 0.372066,0.444658 c 0.204635,0.24456 0.545366,0.817239 0.757181,1.272618 0.211813,0.455378 0.462359,0.827888 0.55677,0.827799 0.09441,-8.9e-5 0.371651,-0.356251 0.616092,-0.791472 0.244442,-0.43522 0.626625,-1.007825 0.849297,-1.272456 l 0.404859,-0.481147 h 2.108748 c 2.666302,0 2.606419,-0.0501 2.669121,2.233046 l 0.04571,1.664348 2.068005,0.108844 c 1.137403,0.05986 2.175383,0.114681 2.306622,0.121815 0.131238,0.0071 1.157717,-0.07324 2.281062,-0.178605 1.430378,-0.134166 2.121612,-0.141686 2.306621,-0.02509 0.229062,0.144357 0.269911,0.582621 0.307328,3.297368 0.0386,2.800142 0.0722,3.141175 0.318154,3.228312 0.151251,0.05359 0.386776,0.1928 0.523387,0.309368 0.201479,0.171917 0.351687,0.174861 0.795387,0.01559 0.300851,-0.107994 0.599594,-0.267937 0.663874,-0.35543 0.06428,-0.08749 0.117968,-1.571038 0.119308,-3.296769 l 0.0024,-3.137692 -0.484066,-0.250321 c -0.266236,-0.137675 -0.551094,-0.426618 -0.633019,-0.642095 -0.239741,-0.630568 -0.2663,-2.884458 -0.03671,-3.115133 0.243681,-0.244829 1.596345,-0.423516 3.341105,-0.441363 1.111291,-0.01136 1.361139,0.03533 1.630543,0.304732 l 0.318155,0.318154 v 5.232306 5.232306 l 0.436573,0.109574 c 0.240114,0.06027 0.526454,0.184167 0.636309,0.275339 0.279531,0.231991 0.277056,3.20523 -0.0029,3.437542 -0.111429,0.09248 -1.350258,0.218577 -2.752952,0.280221 -2.263116,0.09945 -2.617567,0.08019 -3.147107,-0.171097 l -0.596748,-0.283177 -0.245308,0.350225 -0.245307,0.350224 -1.773849,-0.08065 c -0.975616,-0.04436 -1.917019,-0.08517 -2.092004,-0.09071 -0.174985,-0.0055 -0.890833,0.03176 -1.590773,0.08287 -1.136937,0.08302 -1.34779,0.05275 -1.977686,-0.283979 -0.771867,-0.412618 -1.641549,-1.531434 -1.92878,-2.48131 -0.0974,-0.322114 -0.214944,-1.337303 -0.261199,-2.255974 -0.07015,-1.393187 -0.138621,-1.729844 -0.412712,-2.029124 -0.265204,-0.289581 -0.341788,-0.627208 -0.396917,-1.74985 -0.0743,-1.513088 -0.210217,-1.83941 -0.602672,-1.446956 -0.215916,0.215917 -0.233607,0.628484 -0.134557,3.137798 l 0.114044,2.889194 0.362604,0.09101 c 0.637601,0.160027 0.815855,0.548448 0.922532,2.010229 0.149915,2.05424 0.190408,2.029098 -3.268073,2.029098 -2.335651,0 -2.77439,-0.03876 -3.027073,-0.267438 l -0.295516,-0.267437 -0.243032,0.346976 c -0.22092,0.315409 -0.368848,0.344528 -1.625937,0.320062 -0.7606,-0.01481 -1.971218,-0.06849 -2.690267,-0.119308 z m 5.164985,-3.978728 0.517001,-0.227554 v -0.945641 -0.94564 l -0.497117,0.09942 c -0.273414,0.05468 -0.846092,0.09942 -1.272618,0.09942 h -0.775502 v 0.952329 0.952329 l 0.540891,0.225998 c 0.404335,0.168943 0.573465,0.360248 0.669915,0.757752 l 0.129023,0.531754 0.0857,-0.636309 c 0.0712,-0.52862 0.1732,-0.67482 0.602704,-0.863865 z M 86.279942,43.18101 c 0.192233,-0.717314 0.111285,-1.207912 -0.216466,-1.311936 -0.517549,-0.164263 -0.68218,0.05542 -0.569518,0.759971 0.05637,0.352509 0.139889,0.701444 0.185602,0.775408 0.160318,0.259401 0.505403,0.130972 0.600382,-0.223443 z m 19.985748,4.937106 c -0.44385,-0.238366 -0.5901,-0.720475 -0.61831,-2.038318 -0.0221,-1.031104 0.26208,-1.542598 0.89761,-1.61577 l 0.43573,-0.05017 0.046,-1.118649 0.046,-1.118651 -0.52327,-0.153967 c -0.65328,-0.192221 -0.85384,-0.618724 -0.98078,-2.085628 -0.0842,-0.973356 -0.0548,-1.190032 0.20531,-1.511235 l 0.30362,-0.374962 h 2.29623 c 1.71241,0 2.36311,0.05551 2.55929,0.218324 0.22727,0.188611 0.26307,0.616736 0.26307,3.145715 v 2.927389 l 0.43717,0.166212 c 0.8676,0.329863 0.99452,0.57083 0.99452,1.88817 0,0.727985 -0.0799,1.323116 -0.19884,1.480079 -0.27704,0.365751 -5.54752,0.572228 -6.16343,0.24146 z m 1.7522,-10.584597 C 107.1815,37.1133 106.7421,36.346528 106.7421,35.3072 c 0,-1.645008 0.81883,-2.58378 2.25465,-2.584929 1.29247,-10e-4 2.19952,1.051567 2.19952,2.552471 0,2.007115 -1.52383,3.090051 -3.17838,2.258777 z"
         id="path3889" />
      <path
         style="fill:#2d251f;stroke-width:0.159077"
         d="m 35.853944,104.31049 c -0.912522,-0.40602 -1.724852,-1.27098 -2.046054,-2.17863 -0.149545,-0.42257 -0.335077,-0.92939 -0.412294,-1.12624 l -0.140393,-0.35793 h -5.957448 c -5.203758,0 -5.989072,-0.0316 -6.207426,-0.24998 -0.320917,-0.32091 -0.314628,-0.437588 0.04093,-0.759365 0.259526,-0.234868 0.918166,-0.263272 6.104998,-0.263272 4.465711,0 5.848662,-0.04611 5.963166,-0.198846 0.08199,-0.109366 0.235723,-0.735733 0.341623,-1.391927 0.483038,-2.993076 2.575099,-5.553211 5.292311,-6.476403 0.471709,-0.160266 0.93681,-0.341348 1.033556,-0.402404 0.09883,-0.06237 0.224038,-0.871721 0.28576,-1.847168 0.182748,-2.888058 0.914609,-5.28758 2.16865,-7.110267 0.466746,-0.678392 0.502596,-0.815655 0.407673,-1.560955 -0.755018,-5.928095 -0.980159,-13.546887 -0.484122,-16.382693 0.473179,-2.705137 1.251048,-4.072566 2.511373,-4.414783 2.559885,-0.695088 7.564608,1.439851 12.9105,5.507426 l 1.590773,1.210384 0.954464,-0.110266 c 2.680622,-0.309682 14.313356,-0.184773 15.202988,0.163247 0.162023,0.06338 0.888261,-0.375181 2.068005,-1.248838 6.129419,-4.539125 11.023904,-6.483731 13.357454,-5.30699 0.586779,0.295895 0.799599,0.537117 1.228035,1.391927 0.850076,1.696057 1.021989,2.802799 1.108106,7.133773 0.07668,3.856489 -0.01656,5.664998 -0.543534,10.542273 l -0.268405,2.484164 0.498297,0.776921 c 1.245579,1.942053 1.887205,4.089294 2.050553,6.862305 0.058,0.984661 0.184014,1.852104 0.280026,1.927648 0.09601,0.07555 0.551295,0.26026 1.011744,0.410477 1.759209,0.573924 3.511783,2.126342 4.408467,3.904985 0.4635,0.919392 0.87883,2.363802 0.87883,3.056318 0,1.121433 -0.27348,1.073799 6.42328,1.118768 l 6.02559,0.04046 0.22532,0.339435 c 0.19703,0.296816 0.19304,0.371726 -0.0318,0.596546 -0.22768,0.22769 -0.94522,0.2571 -6.2712,0.2571 -4.62122,0 -6.05058,0.0461 -6.1716,0.19885 -0.0866,0.10936 -0.28391,0.5861 -0.4384,1.05941 -0.51465,1.57676 -2.326739,2.89949 -3.635743,2.65392 -0.301198,-0.0565 -0.80856,-0.2798 -1.127468,-0.49622 -0.680951,-0.46211 -0.925469,-0.48816 -1.222308,-0.13023 -1.06925,1.28931 -5.040202,0.70636 -6.190264,-0.90875 l -0.33039,-0.46399 -1.020813,0.0153 c -1.196438,0.018 -2.128413,-0.42939 -2.841008,-1.36365 l -0.430681,-0.56466 -4.803994,0.002 c -2.642196,0.001 -4.87578,0.055 -4.963521,0.1193 -0.08774,0.0643 -0.428288,0.52817 -0.756774,1.03086 -1.172522,1.79436 -2.97979,2.65456 -5.844484,2.7818 -1.899374,0.0844 -3.29627,-0.1695 -4.691148,-0.8525 -0.960704,-0.47041 -1.618737,-1.09075 -2.3618,-2.2265 l -0.507603,-0.77586 -4.960479,-0.042 -4.96048,-0.042 -0.596912,0.64515 c -1.044785,1.12921 -2.078973,1.55505 -3.079606,1.26808 l -0.50726,-0.14549 -0.631831,0.69426 c -0.854352,0.93877 -1.948651,1.39477 -3.563006,1.48474 -1.080801,0.0602 -1.385805,0.0189 -1.937905,-0.26279 -0.360372,-0.18385 -0.700098,-0.40688 -0.754945,-0.49562 -0.15011,-0.24289 -0.651312,-0.19386 -0.883957,0.0865 -0.276855,0.33359 -1.207023,0.70926 -1.72188,0.69542 -0.229921,-0.006 -0.713021,-0.14249 -1.073559,-0.3029 z m 2.001279,-1.3752 c 0.272383,-0.2292 0.653696,-0.74819 0.847362,-1.15331 0.537609,-1.12462 1.377506,-1.10672 1.383686,0.0295 0.0057,1.0545 0.565804,1.52874 1.813368,1.53549 1.196706,0.006 2.07461,-0.25916 2.658149,-0.80426 0.388682,-0.36309 0.462315,-0.55599 0.462315,-1.21116 0,-1.23669 0.427199,-1.467835 1.253463,-0.67821 0.768381,0.7343 1.225067,0.85557 1.90102,0.50478 0.764817,-0.3969 1.107017,-0.90408 1.29816,-1.923982 0.587129,-3.132826 -1.694511,-6.267662 -5.110305,-7.02125 -1.464272,-0.323046 -4.127073,-0.134302 -5.394412,0.382367 -2.36471,0.964043 -3.890664,3.067357 -4.284013,5.904913 -0.286853,2.069312 0.222918,3.686602 1.415298,4.490152 0.698593,0.47078 1.147766,0.45671 1.755909,-0.055 z m 32.200105,0.0328 c 1.750671,-0.52688 2.897827,-1.60888 3.361645,-3.17073 0.337543,-1.136631 0.301788,-3.299852 -0.07916,-4.789355 -0.380104,-1.486188 -0.798684,-2.210289 -1.428511,-2.471173 -0.660933,-0.273767 -3.097573,-0.159553 -3.417218,0.160179 -0.187062,0.187113 -0.278675,0.943086 -0.404836,3.340623 -0.170292,3.236222 -0.258181,3.973706 -0.473557,3.973706 -0.223198,0 -0.301797,-0.625534 -0.489704,-3.897392 -0.13089,-2.279059 -0.244883,-3.246566 -0.401862,-3.410762 -0.350958,-0.36709 -2.896617,-0.435713 -3.553932,-0.0958 -0.925985,0.478845 -1.609047,2.615632 -1.628228,5.093495 -0.0237,3.061019 1.427342,4.889389 4.31927,5.442469 1.187266,0.22706 3.128719,0.14597 4.196096,-0.17526 z m 24.365513,-0.007 c 0.267726,-0.26772 0.390463,-0.56775 0.390463,-0.95446 0,-0.64926 0.509972,-1.28682 0.868714,-1.08606 0.122246,0.0684 0.427173,0.5181 0.677615,0.9993 0.316037,0.60724 0.635859,0.97225 1.045361,1.19307 l 0.590011,0.31815 0.755539,-0.39769 c 0.928058,-0.4885 1.401526,-1.33397 1.556276,-2.77901 0.23378,-2.183009 -0.539406,-4.497083 -2.028756,-6.07185 -1.404702,-1.485267 -3.12005,-2.145412 -5.565609,-2.141904 -2.496476,0.0036 -4.279931,0.674236 -5.629357,2.116881 -1.049134,1.12161 -1.541455,2.301014 -1.625473,3.893986 -0.08754,1.65965 0.294576,2.589257 1.26855,3.086137 0.75045,0.38285 1.064292,0.30997 1.894318,-0.43991 0.860474,-0.777385 1.261415,-0.63914 1.261415,0.43495 0,1.40314 1.13137,2.19783 3.149007,2.21189 0.856415,0.006 1.058018,-0.0496 1.391926,-0.38348 z m -34.322723,-5.285164 0.04521,-1.619159 -0.693577,-0.477192 C 57.692206,94.3708 56.250098,92.216554 55.747549,90.049606 55.613835,89.47304 55.390681,88.8277 55.251654,88.615518 c -0.373157,-0.569511 -0.138553,-0.637353 0.459681,-0.13293 1.031197,0.869493 1.976961,1.048358 3.657667,0.691749 1.14343,-0.24261 2.246227,-0.820613 3.388222,-1.775848 1.114394,-0.93215 2.272835,-1.487344 3.421297,-1.639693 0.681937,-0.09046 0.844713,-0.176383 0.972901,-0.513543 0.277337,-0.729452 0.117837,-1.02064 -0.751082,-1.371179 -1.76341,-0.711399 -3.198725,-2.199402 -3.884266,-4.026854 -0.571369,-1.523103 -0.180963,-2.516593 1.329317,-3.382793 1.043535,-0.598505 0.516924,-0.647906 -0.659164,-0.06184 -1.117243,0.556746 -2.164434,1.778377 -3.215224,3.750808 -0.86838,1.630032 -2.43618,3.473021 -2.954442,3.473021 -0.342911,0 -0.283749,-0.120116 0.496656,-1.008336 0.396764,-0.451579 0.890058,-1.178977 1.096208,-1.61644 0.939585,-1.993862 1.36379,-2.996112 1.296569,-3.063334 -0.04009,-0.04009 -0.421746,0.01651 -0.848117,0.125788 -1.470118,0.376781 -2.875412,-0.109909 -3.654193,-1.265544 -0.569988,-0.845806 -0.486625,-1.533666 0.273505,-2.256758 0.701689,-0.667502 1.401419,-0.874724 2.409414,-0.71354 1.27647,0.204117 2.080434,0.821264 2.927334,2.247112 0.150126,0.252753 0.246981,0.217029 1.034003,-0.381385 1.590186,-1.209099 3.699979,-1.72545 6.356529,-1.555697 2.131145,0.13618 3.483724,0.591431 4.841059,1.629406 0.723915,0.553589 0.797722,0.577775 0.954464,0.312779 0.53965,-0.912364 0.870835,-1.313737 1.351,-1.637319 1.206702,-0.813197 2.784165,-0.870427 3.747122,-0.135945 0.758486,0.578526 0.923861,0.941727 0.78988,1.734756 -0.267845,1.585355 -2.226545,2.543621 -4.070153,1.991263 -0.33881,-0.10151 -0.649794,-0.150791 -0.691071,-0.109513 -0.09155,0.09155 1.231298,3.167625 1.658198,3.855865 0.168763,0.272077 0.562112,0.741378 0.874108,1.042892 0.616158,0.595458 0.700624,0.80395 0.325702,0.80395 -0.533917,0 -2.211906,-1.96453 -3.061964,-3.584839 -0.460625,-0.878005 -1.160215,-1.965285 -1.554646,-2.416178 -0.738317,-0.844007 -2.111043,-1.640259 -2.807457,-1.628468 -0.323242,0.0055 -0.307202,0.03258 0.132469,0.223891 0.775435,0.337405 1.784292,1.334831 1.947316,1.925254 0.441496,1.598965 -1.426157,4.484732 -3.561101,5.502369 -0.524956,0.250224 -1.046192,0.455009 -1.158303,0.455077 -0.316553,1.59e-4 -0.399411,0.411283 -0.202909,1.006692 0.161842,0.490386 0.251032,0.552234 0.929196,0.644329 1.313317,0.178349 2.182052,0.561805 3.229769,1.425606 1.358678,1.12018 2.252024,1.621044 3.429223,1.922639 1.741348,0.446124 2.841406,0.269132 3.908629,-0.628876 0.599467,-0.504418 0.721278,-0.408983 0.384322,0.3011 -0.142692,0.300702 -0.25944,0.693722 -0.25944,0.873378 0,0.522653 -0.708319,2.329288 -1.292157,3.295767 -0.50867,0.842047 -1.503915,1.887862 -2.63809,2.772135 l -0.510085,0.397693 -0.02233,1.431696 c -0.01228,0.787433 -0.0154,1.522292 -0.0069,1.63302 0.01212,0.158342 0.974859,0.192305 4.50935,0.159077 l 4.493936,-0.04225 0.101956,-1.352157 c 0.159873,-2.120262 0.757003,-3.438285 2.22096,-4.90224 1.423535,-1.423535 3.954267,-2.405642 6.21677,-2.412556 1.122483,-0.0034 1.163048,-0.09456 0.937389,-2.105911 -0.366572,-3.267328 -1.265395,-5.340915 -3.059463,-7.058191 -2.678935,-2.564266 -3.490389,-3.534119 -6.176948,-7.3827 -0.641292,-0.918672 -1.795632,-2.291936 -2.565199,-3.051698 -1.143008,-1.128449 -1.669977,-1.514681 -2.877961,-2.10935 -0.813313,-0.40038 -2.047044,-0.87095 -2.741625,-1.045714 -1.59303,-0.40082 -4.404114,-0.598951 -6.770531,-0.477198 -1.006164,0.05177 -2.616822,0.05566 -3.579239,0.0087 -3.921732,-0.191563 -6.92177,0.242764 -9.255555,1.339964 -2.258511,1.061811 -3.642441,2.369494 -5.950031,5.622223 -2.468613,3.479704 -3.225366,4.404293 -5.233641,6.394372 -2.208771,2.188761 -2.771295,3.049796 -3.33511,5.104916 -0.332492,1.211946 -0.687074,4.142462 -0.545775,4.510682 0.04964,0.129353 0.577806,0.236252 1.485679,0.300694 2.052497,0.145691 4.084638,0.956605 5.490468,2.19094 1.306904,1.147477 2.291159,3.292404 2.364086,5.151907 0.0206,0.525369 0.09362,1.045803 0.162252,1.156521 0.09689,0.156295 1.127159,0.191863 4.607817,0.159077 l 4.483026,-0.04224 0.04521,-1.619158 z M 91.212142,79.530178 c 0.04458,-0.153112 0.207064,-1.566912 0.361077,-3.141777 0.353939,-3.619238 0.397025,-10.418935 0.07711,-12.169415 -0.270088,-1.477841 -0.726617,-2.733232 -1.125098,-3.093851 -1.018101,-0.921369 -4.560876,0.06191 -8.121928,2.254198 -1.965803,1.210206 -4.613271,3.118135 -4.613271,3.324608 0,0.106174 0.340028,0.322373 0.755617,0.48044 0.41559,0.158067 1.220919,0.602892 1.78962,0.988502 2.338596,1.585687 3.326562,2.654801 6.121924,6.624745 1.517322,2.154886 4.067787,5.010935 4.474786,5.010935 0.109509,0 0.235582,-0.125273 0.280164,-0.278385 z m -45.300724,-1.35287 c 0.77842,-0.809697 2.041379,-2.37995 2.806578,-3.48945 1.823835,-2.644467 3.130633,-4.255517 4.14631,-5.111664 1.225433,-1.032957 2.8149,-2.072039 3.667859,-2.397786 0.513873,-0.196249 0.738532,-0.367504 0.705627,-0.53789 -0.05873,-0.304124 -2.231507,-1.894512 -4.27397,-3.128383 -3.017108,-1.822662 -5.175929,-2.668175 -6.882975,-2.695754 -1.001842,-0.01619 -1.116644,0.01707 -1.468553,0.425388 -0.871012,1.010638 -1.342041,3.786209 -1.342041,7.908071 0,2.997733 0.499463,9.955996 0.7451,10.380338 0.175794,0.303688 0.582449,0.01354 1.896065,-1.35287 z m 13.101147,-2.576652 c 0.304977,-0.367473 0.135852,-0.803028 -0.311812,-0.803028 -0.252135,0 -0.413111,0.102679 -0.44842,0.286027 -0.05508,0.286008 0.221875,0.747975 0.44842,0.747975 0.06607,0 0.206382,-0.103938 0.311812,-0.230974 z m 19.41134,-0.291624 c -0.0077,-0.608489 -0.811945,-0.803165 -0.923568,-0.223551 -0.08606,0.44688 0.264118,0.77103 0.624554,0.578132 0.165796,-0.08873 0.300353,-0.248293 0.299014,-0.354581 z M 46.957528,52.404779 c -0.734492,-0.235086 -1.460193,-0.951498 -1.460193,-1.441504 0,-0.221033 0.206106,-0.984307 0.458011,-1.696165 l 0.458012,-1.294287 -0.617913,-0.390072 c -0.339853,-0.214539 -0.829267,-0.693174 -1.087588,-1.063634 -0.25832,-0.370459 -0.570593,-0.815176 -0.693942,-0.98826 l -0.224268,-0.314699 -0.404571,0.791931 c -0.486953,0.953193 -1.256497,1.722019 -2.058411,2.056487 -0.672399,0.280448 -2.603332,0.329617 -3.471617,0.0884 -1.156179,-0.321195 -2.322903,-1.539077 -2.705785,-2.824423 -0.110765,-0.371843 -0.264189,-0.676079 -0.340942,-0.676079 -0.07675,0 -0.281726,0.331685 -0.455497,0.737077 -0.686494,1.601522 -1.839138,2.569955 -3.458663,2.90591 -1.658942,0.344132 -6.074852,0.08488 -6.544709,-0.384229 -0.153205,-0.152961 -0.251856,-0.702396 -0.297489,-1.656859 -0.08947,-1.871237 -5.25e-4,-2.19559 0.648033,-2.363426 l 0.514981,-0.133267 0.04401,-2.434354 c 0.04587,-2.537356 -0.02741,-2.874867 -0.624198,-2.874867 -0.451571,0 -0.643646,-0.683204 -0.669499,-2.381378 l -0.02293,-1.506454 0.404105,-0.196319 c 1.163343,-0.56517 5.386175,-0.646936 7.089065,-0.137263 1.677741,0.502145 3.053569,2.334886 3.393791,4.520866 0.08691,0.558414 0.204088,1.059507 0.260394,1.113541 0.05631,0.05403 0.216523,-0.08072 0.356039,-0.299452 0.548385,-0.859762 1.569127,-1.694142 2.349565,-1.920593 1.160522,-0.336738 2.867,-0.276141 3.652697,0.129705 0.59501,0.307351 1.542649,1.241909 2.158673,2.128881 l 0.256896,0.369887 0.340722,-0.667869 c 0.801378,-1.570833 2.400736,-2.446719 3.981734,-2.180589 0.402302,0.06772 0.946213,0.109523 1.208691,0.0929 0.262477,-0.01662 1.333849,-0.06839 2.380827,-0.115027 2.204869,-0.09822 2.311953,-0.04129 2.311953,1.229257 0,0.415577 0.05725,0.790977 0.127226,0.834224 0.06997,0.04325 0.37421,-0.256764 0.676078,-0.66669 0.78551,-1.066688 1.935618,-1.620246 3.366341,-1.620246 1.612165,0 2.61602,0.541118 3.648823,1.966861 0.533214,0.736081 0.596196,1.631075 0.207002,2.941628 -0.205189,0.69095 -0.378648,0.925128 -1.034002,1.395952 -0.903411,0.649037 -0.980604,0.854039 -0.321583,0.854039 0.814812,0 1.018917,0.375707 0.902388,1.661079 -0.217005,2.393692 -0.461812,2.613817 -2.599948,2.337811 -2.278767,-0.294159 -3.842499,-1.288198 -4.649759,-2.955777 -0.361555,-0.746873 -0.638336,-2.149415 -0.639799,-3.24209 -7.95e-4,-0.568232 -0.04914,-0.678458 -0.278384,-0.63431 -0.25467,0.04904 -0.277537,0.366882 -0.278385,3.869291 l -9.23e-4,3.815854 -0.417199,0.874925 c -0.499253,1.047001 -1.261068,1.851624 -2.128038,2.247615 -0.722241,0.329885 -2.810341,0.383954 -3.70982,0.09606 z m 3.555997,-0.741836 c 0.742956,-0.325172 1.409008,-1.058951 1.886092,-2.077876 l 0.335736,-0.717043 v -3.871736 -3.871736 l 0.437463,-0.229585 0.437463,-0.229585 v -1.095451 c 0,-1.650936 0.05821,-1.598703 -1.781763,-1.598703 -1.454863,0 -1.595653,0.02679 -1.671846,0.318155 -0.102924,0.393585 -0.162819,0.393789 -1.022955,0.0035 -1.253871,-0.568957 -2.707031,-0.332132 -3.690717,0.601486 -1.980846,1.880023 -1.642741,6.672194 0.567142,8.03846 1.008488,0.6235 1.930618,0.713338 2.903718,0.28289 0.983796,-0.435179 1.037642,-0.42745 1.037642,0.148978 0,0.685232 -0.41366,1.40178 -0.876269,1.517887 -0.411072,0.103173 -1.348974,0.02091 -1.928176,-0.16911 -0.302195,-0.09914 -0.375151,-0.0033 -0.676079,0.887755 -0.43416,1.285616 -0.424924,1.508697 0.07605,1.836948 1.07035,0.70132 2.670503,0.791997 3.966499,0.224773 z m -2.887657,-7.54324 c -0.361419,-0.310878 -0.445954,-0.532766 -0.502896,-1.319995 -0.06134,-0.848011 -0.02393,-0.999207 0.360178,-1.455694 0.24184,-0.287411 0.580346,-0.509394 0.776784,-0.509394 1.272991,0 1.833312,2.258875 0.813329,3.278858 -0.479391,0.479391 -0.895228,0.481179 -1.447395,0.0062 z m 1.080257,-0.525886 c 0.417096,-0.377465 0.395381,-1.501802 -0.03656,-1.892698 -0.849532,-0.768818 -1.522903,1.078261 -0.694934,1.90623 0.312409,0.31241 0.372559,0.311296 0.73149,-0.01354 z m 0.131834,4.563351 c 0,-0.08474 -0.107377,-0.112879 -0.238616,-0.06252 -0.131239,0.05036 -0.238616,0.1197 -0.238616,0.154086 0,0.03438 0.107377,0.06252 0.238616,0.06252 0.131239,0 0.238616,-0.06934 0.238616,-0.154086 z M 31.166611,47.584757 c 1.010779,-0.300169 2.081438,-1.229919 2.563827,-2.2264 0.996839,-2.059194 1.021878,-6.039518 0.05161,-8.204322 -0.484975,-1.08205 -1.140629,-1.747495 -2.203979,-2.236898 -0.725664,-0.333982 -1.018499,-0.365903 -3.340624,-0.364155 -1.634536,0.0013 -2.794612,0.07659 -3.242193,0.2106 l -0.696955,0.208682 0.109542,1.208838 c 0.131508,1.451237 0.272058,1.753188 0.846845,1.819323 l 0.437524,0.05034 v 3.102007 3.102008 l -0.556771,0.182937 -0.55677,0.182939 0.03386,1.388672 c 0.01863,0.76377 0.06162,1.416431 0.09555,1.450359 0.154166,0.154165 2.103697,0.337277 3.77888,0.354935 1.258271,0.01327 2.105746,-0.05944 2.679652,-0.229867 z m -2.525875,-3.239979 c -0.205122,-0.383274 -0.217416,-5.884787 -0.01387,-6.206535 0.189459,-0.299479 1.174499,-0.273317 1.658875,0.04406 0.714867,0.468399 0.974174,1.301426 0.974174,3.129551 0,1.307653 -0.06212,1.78409 -0.286108,2.194347 -0.540974,0.990848 -1.97561,1.506502 -2.333071,0.838579 z m 1.172332,-0.509731 c 0.647422,-0.294985 0.966299,-1.153883 0.966299,-2.602734 0,-1.45579 -0.319149,-2.307873 -0.976618,-2.607436 -0.757145,-0.344979 -0.849455,-0.07566 -0.849455,2.478295 0,1.980511 0.126702,2.912994 0.395805,2.912994 0.03655,0 0.245337,-0.0815 0.463969,-0.181119 z m 11.543809,3.47862 c 0.808316,-0.412858 1.632114,-1.495688 1.945032,-2.556624 0.293759,-0.995975 0.242692,-3.056588 -0.100839,-4.06897 -0.61459,-1.811192 -2.148156,-2.824828 -4.064109,-2.686242 -2.591502,0.187454 -3.996162,2.194633 -3.777245,5.397468 0.126156,1.845719 0.884734,3.279996 2.059275,3.893566 1.185667,0.619381 2.749776,0.627644 3.937886,0.0208 z m -2.588544,-3.070486 c -1.030457,-1.030457 -0.521346,-3.090407 0.763786,-3.090407 0.83653,0 1.351974,0.70442 1.351974,1.847645 0,1.465072 -1.192813,2.165711 -2.11576,1.242762 z m 1.337433,-0.486185 c 0.264523,-0.318732 0.254419,-1.402184 -0.01612,-1.728161 -0.2799,-0.337258 -0.912783,-0.29848 -1.108889,0.06795 -0.57418,1.072866 0.408688,2.523324 1.125005,1.660215 z m 20.609571,3.954331 c 0.194928,-0.124017 0.570297,-2.38878 0.432796,-2.611257 -0.044,-0.07119 -0.464828,-0.12944 -0.935178,-0.12944 -0.907201,0 -1.67128,-0.21089 -1.67128,-0.461284 0,-0.08305 0.639437,-0.55637 1.420971,-1.051815 1.519335,-0.963167 1.663089,-1.164885 1.85009,-2.596089 0.08625,-0.660085 0.04171,-0.818701 -0.400472,-1.4264 -0.273631,-0.376051 -0.822277,-0.889691 -1.219216,-1.141423 -1.891116,-1.19931 -4.248216,-0.515188 -5.245079,1.522325 -0.571887,1.168896 -0.717039,3.199581 -0.325079,4.547878 0.301695,1.037788 1.268358,2.213306 2.228078,2.709465 1.169467,0.604594 3.350835,0.964756 3.864369,0.63804 z m -3.680375,-5.75585 c -0.158578,-0.256585 0.08274,-0.913572 0.468764,-1.276227 0.259813,-0.244081 0.522351,-0.329695 0.899932,-0.29347 0.81177,0.07788 0.758359,0.475768 -0.153748,1.145315 -0.814094,0.597601 -1.055728,0.682004 -1.214948,0.424382 z m 43.223288,6.3657 c -1.085707,-0.680945 -1.466281,-1.770335 -1.60924,-4.606437 -0.102782,-2.039063 -0.117404,-2.078299 -0.860418,-2.308956 -0.252952,-0.07853 -0.278886,-0.272435 -0.238616,-1.784158 0.03517,-1.320389 0.09803,-1.720677 0.283798,-1.807218 0.848403,-0.395242 0.874745,-0.430816 0.956137,-1.291256 0.04467,-0.4722 0.133927,-0.940833 0.198357,-1.041408 0.229757,-0.358652 3.047922,-0.79604 3.458752,-0.536809 0.16581,0.104626 0.26288,0.528596 0.31815,1.389583 l 0.0795,1.239017 0.79135,0.04994 c 0.43524,0.02747 0.88264,0.125715 0.99423,0.218325 0.13586,0.112759 0.20289,0.623192 0.20289,1.545203 0,1.782175 -0.18477,2.083922 -1.27605,2.083922 -0.95105,0 -1.15405,0.271335 -1.0068,1.345678 l 0.10075,0.735074 0.6627,-0.09938 c 0.46152,-0.06921 0.71492,-0.03493 0.83472,0.112934 0.29248,0.360979 1.16191,2.532542 1.16191,2.902077 0,0.43523 -0.80515,1.221017 -1.74985,1.707781 -1.00972,0.520261 -2.59398,0.590343 -3.30231,0.146081 z m 2.79686,-0.647122 c 1.03029,-0.46756 1.61899,-0.937662 1.61899,-1.29284 0,-0.367346 -0.60171,-1.873185 -0.86531,-2.165512 -0.14125,-0.156653 -0.28579,-0.157723 -0.69011,-0.0051 -0.42676,0.161083 -0.55156,0.152932 -0.75372,-0.04923 -0.27365,-0.273648 -0.49614,-2.107431 -0.33405,-2.753252 0.096,-0.382609 0.17005,-0.414414 0.96454,-0.414414 1.19665,0 1.38695,-0.224942 1.32758,-1.56922 l -0.0466,-1.055559 -0.6363,-0.0424 c -1.36954,-0.09126 -1.33419,-0.05273 -1.38552,-1.510026 l -0.0462,-1.310966 -1.03224,0.0493 c -1.595862,0.07622 -1.8125,0.236625 -1.926487,1.426388 -0.10822,1.129566 -0.06683,1.05508 -0.700052,1.259871 l -0.477232,0.154344 v 1.257799 1.2578 l 0.477232,0.08225 0.477232,0.08224 0.09859,2.066862 c 0.136333,2.857991 0.562907,4.227922 1.449587,4.655299 0.56968,0.274585 1.73006,0.216741 2.48008,-0.123629 z m -33.100362,0.518942 c -1.613291,-0.07092 -1.740922,-0.23794 -1.676044,-2.193256 0.04737,-1.427721 0.084,-1.506667 0.801844,-1.728488 0.252384,-0.07799 0.278385,-0.369249 0.278385,-3.118479 0,-2.74439 -0.02644,-3.041832 -0.278385,-3.131179 -0.750306,-0.266087 -0.835156,-0.496746 -0.835156,-2.270289 0,-1.104971 0.06633,-1.759711 0.190893,-1.884273 0.128343,-0.128344 0.850004,-0.190893 2.202427,-0.190893 2.301252,0 2.197042,-0.05358 2.993886,1.539415 0.270344,0.540456 0.564147,1.027522 0.652895,1.082372 0.08875,0.05485 0.358792,-0.234513 0.6001,-0.643026 0.241307,-0.408513 0.636047,-1.020853 0.8772,-1.360756 l 0.43846,-0.618005 h 2.114731 c 1.432687,0 2.176297,0.06157 2.305623,0.190893 0.12584,0.12584 0.190893,0.800544 0.190893,1.979857 v 1.788966 l 2.187313,0.07503 c 1.203023,0.04127 2.294691,0.08545 2.42593,0.09819 0.131238,0.01274 1.133425,-0.08046 2.227082,-0.207108 1.238399,-0.143408 2.092212,-0.175764 2.263502,-0.08578 0.244117,0.128245 0.279882,0.496727 0.318154,3.277899 l 0.04312,3.133411 0.379414,0.189022 c 0.208677,0.103962 0.431393,0.273128 0.494926,0.375924 0.08702,0.140801 0.287721,0.128716 0.813666,-0.04899 l 0.698154,-0.235897 0.04286,-3.430639 0.04286,-3.430639 -0.478015,-0.247191 c -0.518207,-0.267975 -0.576243,-0.428737 -0.722618,-2.001649 -0.08083,-0.868631 -0.04848,-1.104549 0.192224,-1.40181 0.265117,-0.327405 0.462912,-0.364984 2.355907,-0.447594 1.909182,-0.08331 2.087514,-0.06666 2.342665,0.218812 0.248356,0.27787 0.280401,0.834634 0.318154,5.527636 l 0.04198,5.218645 0.554357,0.179902 c 0.476901,0.154768 0.570083,0.26881 0.666911,0.816213 0.225341,1.273937 0.15326,2.28425 -0.187265,2.624776 -0.292093,0.292093 -0.530258,0.318154 -2.907535,0.318154 -2.763069,0 -3.296481,-0.130163 -3.296481,-0.804406 0,-0.170025 -0.07158,-0.309135 -0.159077,-0.309135 -0.08749,0 -0.159078,0.173849 -0.159078,0.386331 0,0.730842 -0.359118,0.886288 -2.047552,0.886288 -0.967954,0 -1.61718,-0.06958 -1.733381,-0.185787 -0.141665,-0.141664 -0.333056,-0.141664 -0.805889,0 -0.835494,0.25032 -2.305489,0.234802 -2.941774,-0.03106 -0.669808,-0.279863 -1.738997,-1.497002 -1.999744,-2.276458 -0.111995,-0.33479 -0.241051,-1.396141 -0.286792,-2.358559 -0.07114,-1.496881 -0.132343,-1.803395 -0.423337,-2.120233 -0.289921,-0.315668 -0.348249,-0.603536 -0.394849,-1.948697 -0.05616,-1.621093 -0.105066,-1.720682 -0.727699,-1.481756 -0.217473,0.08345 -0.251627,0.515 -0.251627,3.179412 v 3.082853 l 0.559007,0.233568 c 0.660219,0.275856 0.661041,0.277873 0.790333,1.937508 0.144627,1.856469 0.225486,1.810126 -3.158277,1.810126 -1.919533,0 -2.797869,-0.05719 -2.931567,-0.190892 -0.2124,-0.2124 -0.267602,-2.941892 -0.06591,-3.259087 0.06606,-0.103892 0.318794,-0.264435 0.56163,-0.35676 l 0.441519,-0.167866 -0.04706,-1.074935 c -0.03813,-0.870956 -0.09234,-1.060234 -0.28568,-0.997464 -0.131239,0.04261 -0.73971,0.08935 -1.352158,0.10386 l -1.113541,0.02639 v 1.08922 1.089221 l 0.504557,0.222208 c 0.277507,0.122214 0.544972,0.372761 0.594368,0.55677 0.16909,0.629892 0.09966,2.73113 -0.09674,2.927524 -0.187129,0.187129 -1.154615,0.204085 -4.144689,0.07264 z m 3.606723,-0.455534 c 0.268753,-0.103129 0.325595,-0.787171 0.152425,-1.834264 -0.07905,-0.478002 -0.182521,-0.603487 -0.59479,-0.721362 l -0.499088,-0.142697 -0.0797,-2.221569 c -0.108025,-3.011197 -0.05324,-3.140455 0.769896,-1.816315 l 0.499138,0.802946 0.598412,-0.107246 c 0.708795,-0.12703 1.056614,-0.399404 1.319023,-1.032913 0.106102,-0.256153 0.293519,-0.465733 0.416481,-0.465733 0.183922,0 0.215763,0.41587 0.179547,2.345008 l -0.04402,2.34501 -0.477232,0.08195 -0.477232,0.08195 -0.04736,1.087059 c -0.02895,0.664461 0.025,1.174254 0.138785,1.311355 0.20878,0.251563 1.088357,0.28147 3.527588,0.119943 l 1.551004,-0.102709 v -1.07007 c 0,-1.139669 -0.11976,-1.35825 -0.795387,-1.451708 -0.360051,-0.0498 -0.407352,-0.145355 -0.499737,-1.009476 -0.163082,-1.525417 -0.151171,-5.959038 0.01685,-6.272997 0.08438,-0.157675 0.370725,-0.330141 0.636309,-0.383259 l 0.482882,-0.09658 v -1.324318 c 0,-0.817924 -0.07299,-1.397313 -0.190892,-1.515212 -0.229999,-0.229999 -2.939764,-0.262848 -3.51891,-0.04266 -0.256076,0.09736 -0.672601,0.642266 -1.21362,1.58768 -0.453052,0.791694 -0.888167,1.479268 -0.966925,1.527942 -0.163068,0.100782 -0.686596,-0.683172 -1.399999,-2.096413 -0.268847,-0.532581 -0.60556,-1.013132 -0.748254,-1.067888 -0.330232,-0.126722 -2.742599,-0.126191 -3.21612,6.37e-4 l -0.357924,0.09592 0.0024,1.293835 c 0.0013,0.711609 0.05503,1.372293 0.119308,1.468188 0.06428,0.09589 0.313731,0.222532 0.554335,0.281416 l 0.437463,0.107062 v 3.6512 3.6512 l -0.517002,0.136302 -0.517001,0.136301 0.01288,1.066265 c 0.0071,0.586446 0.07868,1.131973 0.159078,1.212282 0.0804,0.08031 1.076788,0.210941 2.21419,0.290292 1.137403,0.07935 2.080048,0.15459 2.094764,0.167199 0.01471,0.01261 0.139991,-0.02053 0.278385,-0.07363 z m 13.279186,-0.396901 c 0.576746,-0.339991 0.971245,-0.304353 0.971245,0.08774 0,0.132319 0.185349,0.287098 0.411885,0.343955 0.618039,0.155118 2.316953,-0.0395 2.471379,-0.2831 0.190331,-0.300244 0.171594,-2.160773 -0.02547,-2.528988 -0.09057,-0.169233 -0.297667,-0.307697 -0.460213,-0.307697 -0.162546,0 -0.33899,-0.113231 -0.392096,-0.251627 -0.05311,-0.138394 -0.09656,-1.608128 -0.09656,-3.266076 0,-2.266455 -0.04934,-3.032623 -0.198846,-3.087682 -0.109366,-0.04028 -0.950487,0.01565 -1.869159,0.1243 l -1.670312,0.197531 -0.04764,0.822341 c -0.06864,1.184988 0.13935,1.851455 0.613202,1.964835 l 0.388901,0.09306 v 1.208039 c 0,1.381225 -0.278708,1.877127 -1.05499,1.877127 -0.843477,0 -1.006067,-0.523374 -1.066121,-3.431821 l -0.05311,-2.571961 -0.821818,-0.09873 c -1.163684,-0.139807 -2.374803,-0.120565 -2.631131,0.0418 -0.1622,0.102745 -0.20083,0.41651 -0.14985,1.217137 0.05665,0.889648 0.1298,1.119284 0.417385,1.310232 0.315065,0.209197 0.348698,0.366987 0.348698,1.63599 0,3.033642 0.744513,4.630454 2.408936,5.166613 0.833729,0.268569 1.770779,0.170208 2.505679,-0.263017 z m 10.642208,-1.059844 c 0.04941,-1.220513 0.06785,-1.188749 -0.800317,-1.378848 l -0.435377,-0.09533 -0.04185,-5.445892 -0.04185,-5.445891 h -1.954779 c -2.220058,0 -2.255621,0.01932 -2.150673,1.168145 0.117638,1.287729 0.177389,1.424615 0.668962,1.532584 0.290322,0.06377 0.495864,0.230546 0.554748,0.450135 0.05145,0.19186 0.09452,1.932834 0.09572,3.86883 0.0024,3.815762 0.01247,3.770686 -0.902353,4.022291 l -0.447633,0.123115 0.04901,1.013997 c 0.02696,0.557699 0.126668,1.107568 0.221582,1.22193 0.131574,0.158538 0.76234,0.197553 2.655301,0.164239 l 2.482732,-0.04369 z M 86.384144,43.289962 c 0.299413,-0.787515 0.194632,-1.313209 -0.314192,-1.576332 -0.258134,-0.133485 -0.50868,-0.242701 -0.556771,-0.242701 -0.175753,0 -0.08171,1.851028 0.103454,2.03619 0.30569,0.305689 0.600428,0.222297 0.767509,-0.217157 z m 19.795706,4.639261 c -0.24196,-0.176927 -0.3173,-0.468333 -0.36493,-1.411566 -0.0722,-1.429442 0.0971,-1.826327 0.80809,-1.894888 l 0.51679,-0.04983 V 43.300318 42.0277 l -0.44094,-0.05067 c -0.61817,-0.07104 -0.85879,-0.55657 -0.96776,-1.952798 -0.13948,-1.786983 -0.11943,-1.80263 2.38977,-1.865696 1.1734,-0.02949 2.2274,0.01956 2.47886,0.115371 l 0.43746,0.16668 0.002,2.827559 c 10e-4,1.555158 0.0613,2.920385 0.1333,3.033838 0.072,0.113454 0.3751,0.328209 0.67364,0.477232 l 0.54279,0.270954 0.0459,1.294875 c 0.0658,1.856322 0.15316,1.807132 -3.20843,1.807132 -2.10071,0 -2.8134,-0.05215 -3.04699,-0.222953 z m 5.7808,-1.340964 c 0.0507,-0.88531 -0.13464,-1.297674 -0.58501,-1.30191 -0.69392,-0.0065 -0.73259,-0.166396 -0.81568,-3.371842 l -0.0795,-3.068354 h -2.068 -2.06801 l -0.0507,0.712267 c -0.0846,1.188548 0.0836,1.753432 0.52211,1.753432 0.84958,0 0.88073,0.06778 0.88073,1.916558 0,1.83917 -0.0159,1.877056 -0.86104,2.056118 l -0.49112,0.104051 0.0381,0.864796 c 0.021,0.47564 0.0731,0.956019 0.11579,1.067508 0.0596,0.155535 0.69859,0.192555 2.74574,0.159077 l 2.66806,-0.04363 z m -3.90303,-9.171032 c -0.76882,-0.33423 -1.15513,-1.08562 -1.15584,-2.248168 -4.8e-4,-0.76291 0.0758,-1.071789 0.35359,-1.431696 0.56751,-0.735319 0.78869,-0.846195 1.69868,-0.85155 l 0.85978,-0.0051 0.61168,0.643008 0.61168,0.643006 v 1.125558 1.125558 l -0.61759,0.617595 c -0.50876,0.508757 -0.72602,0.616497 -1.23285,0.611368 -0.33839,-0.0034 -0.8465,-0.106754 -1.12913,-0.22962 z m 2.03734,-0.865459 c 0.38623,-0.386224 0.465,-0.595811 0.465,-1.237222 0,-0.872334 -0.27494,-1.366547 -0.95622,-1.718853 -0.69795,-0.360925 -1.09115,-0.290162 -1.68446,0.303156 -0.45238,0.452371 -0.53994,0.654081 -0.53523,1.232849 0.01,1.192377 0.62666,1.867819 1.71668,1.879428 0.37762,0.004 0.66245,-0.127572 0.99423,-0.459358 z"
         id="path3887" />
      <path
         style="fill:#f58c8a;fill-opacity:1;stroke-width:1.34918"
         d="m 381.43175,765.67851 c -13.80151,-3.89191 -23.54908,-13.85504 -25.35817,-25.91894 -1.72705,-11.51679 0.10623,-29.0388 3.90682,-37.34039 3.96545,-8.66168 6.76128,-10.29862 17.54118,-10.27023 14.38468,0.0379 13.61566,-1.39315 15.77231,29.35025 1.46476,20.88061 2.08477,24.59862 4.10198,24.59862 1.46436,0 2.38499,-7.17385 3.96926,-30.92978 0.71384,-10.70396 1.93984,-20.10369 2.72446,-20.8883 0.78461,-0.78462 5.9418,-1.65458 11.46041,-1.93326 9.61178,-0.48537 10.20089,-0.33965 14.0048,3.46426 4.81635,4.81635 8.07236,15.04148 9.15622,28.75407 2.08798,26.41652 -11.15612,41.16985 -38.17457,42.52473 -8.17345,0.40987 -14.23505,-0.0378 -19.1047,-1.41103 z"
         id="path6379"
         transform="matrix(0.14183054,0,0,0.14183054,11.291488,-5.6877068)" />
    </g>
  </g>
</svg>
