<?xml version="1.0" encoding="UTF-8" standalone="no"?>
<!-- Created with Inkscape (http://www.inkscape.org/) -->

<svg
   width="300"
   height="300"
   viewBox="0 0 79.374994 79.375"
   version="1.1"
   id="svg5"
   inkscape:version="1.1 (c68e22c387, 2021-05-23)"
   sodipodi:docname="dogemultiverse_logo.svg"
   xmlns:inkscape="http://www.inkscape.org/namespaces/inkscape"
   xmlns:sodipodi="http://sodipodi.sourceforge.net/DTD/sodipodi-0.dtd"
   xmlns="http://www.w3.org/2000/svg"
   xmlns:svg="http://www.w3.org/2000/svg">
  <sodipodi:namedview
     id="namedview7"
     pagecolor="#ffffff"
     bordercolor="#666666"
     borderopacity="1.0"
     inkscape:pageshadow="2"
     inkscape:pageopacity="0.0"
     inkscape:pagecheckerboard="0"
     inkscape:document-units="px"
     showgrid="true"
     inkscape:zoom="1.8188599"
     inkscape:cx="101.16227"
     inkscape:cy="187.20519"
     inkscape:window-width="1920"
     inkscape:window-height="1017"
     inkscape:window-x="1358"
     inkscape:window-y="-8"
     inkscape:window-maximized="1"
     inkscape:current-layer="layer1"
     units="px"
     width="49px">
    <inkscape:grid
       type="xygrid"
       id="grid7414"
       visible="true" />
  </sodipodi:namedview>
  <defs
     id="defs2" />
  <g
     inkscape:label="Layer 1"
     inkscape:groupmode="layer"
     id="layer1">
    <g
       id="g756"
       transform="matrix(1.0018154,0,0,1.0018156,-0.04123672,0.06161398)">
      <path
         style="fill:#f6f4f4;stroke-width:0.121334"
         d="M 0.14384566,39.75942 V 0.14384566 H 39.75942 79.374994 V 39.75942 79.374994 H 39.75942 0.14384566 Z"
         id="path766" />
      <path
         style="fill:#f9ac53;stroke-width:0.121334"
         d="m 15.36448,78.231476 c -0.838457,-0.4247 -1.222095,-0.861251 -1.61988,-1.8433 L 13.406297,75.55297 6.7750709,75.521601 0.14384566,75.490231 v -0.604598 -0.604598 l 6.64254274,-0.03137 6.6425426,-0.03137 0.08532,-0.683168 c 0.296943,-2.377584 1.800623,-4.434882 3.844827,-5.260402 0.44158,-0.178325 0.884774,-0.366644 0.984874,-0.418485 0.131563,-0.06813 0.206218,-0.410156 0.269385,-1.234128 0.176202,-2.298468 0.731764,-4.15208 1.64033,-5.472902 0.391366,-0.568946 0.418942,-0.666959 0.347882,-1.236467 -1.036519,-8.306985 -0.738973,-13.862844 0.826892,-15.440067 1.513146,-1.524119 5.611433,-0.144793 10.595043,3.565884 l 1.364124,1.015694 1.42656,-0.120643 c 1.718269,-0.14531 10.012916,-0.08442 10.526615,0.07727 0.489358,0.154033 0.518184,0.139976 2.055233,-1.002304 5.015006,-3.726977 9.014507,-5.066865 10.591441,-3.548279 0.42006,0.404515 0.880706,1.489243 1.146807,2.700498 0.246737,1.123105 0.205084,7.98153 -0.06227,10.252729 -0.385483,3.274758 -0.383604,3.214923 -0.112968,3.598163 0.911617,1.290913 1.545568,3.26915 1.665945,5.198557 0.105236,1.686747 0.117604,1.725316 0.585739,1.826636 1.933942,0.418568 3.956567,2.675307 4.343934,4.846738 0.268798,1.506769 -0.643026,1.330314 7.058875,1.366027 l 6.761468,0.03135 v 0.604642 0.604641 l -6.81972,0.03134 -6.81972,0.03134 -0.143451,0.495515 c -0.639012,2.207303 -2.520472,3.042643 -4.1794,1.855591 -0.145072,-0.103806 -0.290233,-0.06354 -0.649208,0.180064 -1.214606,0.824254 -3.725002,0.44705 -4.637721,-0.696847 -0.335721,-0.420756 -0.381929,-0.438973 -1.113429,-0.438977 -0.90708,-5e-6 -1.448549,-0.24265 -2.143137,-0.960396 L 52.389574,75.492292 H 48.777905 45.166236 L 44.753,76.129296 c -2.127313,3.279257 -8.009479,3.279257 -10.113109,0 L 34.231255,75.492292 H 30.500948 26.77064 l -0.509189,0.541095 c -0.702811,0.746847 -1.120251,0.936968 -2.041732,0.929897 -0.655529,-0.005 -0.801435,0.03433 -0.986837,0.26626 -0.999069,1.249759 -3.533704,1.726521 -4.73883,0.891367 -0.492285,-0.341153 -0.492285,-0.341153 -0.98631,-0.01422 -0.711394,0.470779 -1.382992,0.509878 -2.143269,0.124778 z m 1.472,-1.147647 c 0.227346,-0.138636 0.496325,-0.487621 0.688241,-0.892952 0.494559,-1.044526 1.304572,-1.021092 1.304572,0.03774 0,0.731149 0.403279,1.083897 1.238159,1.083017 1.530989,-0.0016 2.280529,-0.505932 2.280529,-1.53443 0,-0.508932 0.04817,-0.666147 0.234691,-0.765971 0.354224,-0.189575 0.453449,-0.160389 0.947966,0.278834 1.191699,1.058445 2.248867,0.242572 2.240257,-1.728926 -0.02294,-5.252246 -8.218375,-6.53774 -10.538147,-1.652959 -0.712779,1.500911 -0.724171,3.843872 -0.02302,4.735237 0.483355,0.614486 1.077506,0.775339 1.626755,0.440407 z m 43.208243,-0.03533 c 0.162011,-0.152203 0.280822,-0.40553 0.280822,-0.598772 0,-1.198451 0.832004,-1.398194 1.311242,-0.314798 1.282194,2.898614 3.669709,-0.164584 2.65904,-3.411568 -1.800588,-5.784764 -11.166094,-4.794067 -10.865961,1.149417 0.08777,1.738152 1.16199,2.431571 2.220443,1.433322 0.726259,-0.684951 1.156548,-0.51888 1.156548,0.446375 0,1.261297 2.296403,2.180481 3.237866,1.296024 z M 33.874717,73.069891 c 0,-1.130489 -0.01774,-1.218389 -0.273001,-1.35242 -1.338204,-0.702665 -3.124353,-3.347141 -3.124353,-4.625748 0,-0.123244 -0.168217,-0.547299 -0.373817,-0.942346 -0.576381,-1.10748 -0.424881,-1.241343 0.435739,-0.385011 1.32792,1.321305 3.357601,1.104275 5.373893,-0.57462 0.874492,-0.72816 1.766418,-1.169077 2.612097,-1.291271 1.111009,-0.160533 1.097048,-0.876796 -0.02525,-1.295451 -1.879303,-0.701043 -3.560657,-3.657775 -2.767963,-4.86758 0.275195,-0.42 0.258711,-0.483818 -0.06944,-0.268808 -0.419403,0.274804 -1.093293,1.224587 -1.727142,2.434239 -0.840564,1.604154 -2.387777,3.094019 -3.213113,3.094019 -0.65985,0 -3.738076,1.35735 -5.159037,2.274887 -0.910646,0.58802 -2.884126,2.427283 -2.781894,2.592698 0.03399,0.05499 0.495888,0.325826 1.026445,0.601853 1.932567,1.005431 3.509727,3.586514 3.266322,5.345459 -0.06555,0.473718 -0.09853,0.469172 3.403157,0.469172 h 3.397354 z m 18.337324,0.177732 c 0.171478,-2.174513 1.326642,-3.871714 3.320808,-4.879025 0.956524,-0.483168 0.957838,-0.485694 0.532132,-1.023192 -0.742331,-0.937268 -2.87852,-2.489458 -4.331925,-3.147646 -1.364732,-0.618032 -2.607593,-1.081532 -2.900095,-1.081532 -0.870426,0 -2.609333,-1.683583 -3.469284,-3.358908 -0.314566,-0.612825 -0.849733,-1.41818 -1.189261,-1.789677 -0.664671,-0.727255 -1.019641,-0.910648 -0.587235,-0.30339 0.616486,0.865775 0.09387,2.548194 -1.197964,3.856537 -0.653081,0.661426 -0.922347,0.833511 -1.996293,1.275813 -0.414451,0.170691 -0.450724,0.221343 -0.37756,0.52723 0.118029,0.493454 0.113312,0.490007 0.79983,0.584428 0.9009,0.123905 1.497369,0.413075 2.464228,1.194669 2.222137,1.796343 4.478257,2.025997 5.64465,0.574578 0.650869,-0.809918 0.874978,-0.406896 0.29624,0.532739 -0.164409,0.266935 -0.299207,0.604933 -0.299549,0.751106 -0.0031,1.305855 -1.657188,3.824154 -3.134732,4.772403 -0.276396,0.177384 -0.336003,0.707588 -0.269312,2.395489 0.0048,0.12085 0.711344,0.146732 3.312422,0.121334 l 3.306354,-0.03228 z M 56.00355,56.83719 c 0.483127,-4.356139 0.441402,-8.934416 -0.08747,-9.598371 -0.347352,-0.436069 -1.735825,0.08947 -4.041769,1.529805 -0.827869,0.517104 -1.694581,1.04939 -1.926027,1.182858 -0.572334,0.330046 -0.540882,0.430088 0.360791,1.14757 1.024252,0.815023 2.175888,2.067985 2.982104,3.244483 2.276539,3.322117 2.588667,3.609076 2.712375,2.493655 z M 24.502165,56.460118 c 0.383441,-0.524376 1.035802,-1.439508 1.449691,-2.03363 0.945743,-1.357576 2.228742,-2.752962 3.110529,-3.383 0.581998,-0.415838 0.902314,-0.762942 0.780831,-0.846131 -2.958443,-2.025887 -5.719754,-3.35817 -6.257355,-3.01906 -0.55959,0.35298 -0.722328,2.674866 -0.457998,6.534541 0.293805,4.290068 0.274451,4.251378 1.374302,2.74728 z m 8.621449,-0.472266 c -0.02249,-0.116784 -0.121296,-0.212335 -0.219569,-0.212335 -0.09827,0 -0.19708,0.09555 -0.21957,0.212335 -0.02869,0.14898 0.03682,0.212334 0.21957,0.212334 0.182747,0 0.24826,-0.06335 0.219569,-0.212334 z m 14.643854,-0.03033 c 0,-0.09827 -0.09555,-0.197079 -0.212334,-0.21957 -0.14898,-0.02869 -0.212335,0.03682 -0.212335,0.21957 0,0.182747 0.06336,0.24826 0.212335,0.21957 0.116784,-0.02249 0.212334,-0.121297 0.212334,-0.21957 z m -12.14977,-1.343481 c 0.461446,-0.362973 0.454504,-1.154342 -0.01397,-1.592652 -1.241171,-1.161252 -3.174972,-0.825877 -2.883734,0.50012 0.234753,1.068823 2.055245,1.75521 2.897704,1.092532 z m 10.177978,-0.105612 c 1.254423,-0.795531 1.14609,-2.007844 -0.192909,-2.158769 -0.695934,-0.07844 -1.264793,0.116678 -1.818316,0.623685 -1.319229,1.208367 0.425984,2.540415 2.011225,1.535084 z M 49.951482,43.33762 c -9.653889,-0.518282 -9.811619,-0.557859 -10.026699,-2.515849 -0.220923,-2.011187 -0.271323,-7.357035 -0.07294,-7.7362 0.452262,-0.864378 0.957436,-1.178146 1.926029,-1.196272 1.320313,-0.02471 1.219443,0.738194 1.160851,-8.779745 -0.05637,-9.157327 0.01829,-8.524933 -1.00231,-8.489249 -0.64697,0.02262 -0.667172,0.01267 -1.340649,-0.660407 -0.859769,-0.859257 -0.881418,-1.015284 -0.890019,-6.41467 -0.0092,-5.7594711 -0.554121,-5.3386991 6.914193,-5.3386991 5.721527,0 5.721527,0 6.090224,0.3943357 0.815703,0.872427 0.886379,0.9927122 2.976431,5.0656974 1.308066,2.54909 1.266704,2.516663 1.8572,1.4560089 1.62047,-2.9107008 3.247444,-5.4842522 3.931193,-6.2183711 l 0.649801,-0.6976709 3.680738,-0.026698 c 2.024405,-0.014684 4.690844,-0.017547 5.925418,-0.00636 l 2.244681,0.020336 0.559336,0.5861919 0.559338,0.5861919 0.08844,4.3038674 c 0.09033,4.3956139 0.07272,4.7090119 -0.307179,5.4680289 -0.404519,0.808209 -0.989872,1.201853 -1.787166,1.201853 -1.396725,0 -1.284926,-0.822532 -1.202366,8.84603 0.08388,9.823109 -0.07915,8.868744 1.515005,8.868744 0.915202,0 0.915202,0 1.394462,0.51567 0.648256,0.697506 0.651383,0.709514 0.864209,3.318787 0.447231,5.483083 0.432304,5.717047 -0.417695,6.54705 l -0.489174,0.477664 -4.877966,0.157047 c -2.682882,0.08638 -6.106474,0.1331 -7.607983,0.103834 -4.461524,-0.08696 -4.41372,-0.029 -4.465419,-5.414033 -0.04305,-4.483616 -0.05398,-4.393761 0.624481,-5.132742 0.526324,-0.573277 0.526324,-0.573277 1.364626,-0.575134 1.252645,-0.0028 1.167704,0.237782 1.174116,-3.325187 0.0064,-3.538443 -0.0105,-3.604168 -0.736539,-2.870831 -0.269639,0.272345 -0.516916,0.495174 -0.549507,0.495174 -0.03259,0 -0.787626,0.108843 -1.677858,0.241873 -2.56665,0.383545 -3.308325,0.317051 -3.912708,-0.350785 -0.614879,-0.679434 -0.64822,-0.505707 -0.582954,3.037517 0.06441,3.496786 -0.007,3.291098 1.177002,3.387946 1.801269,0.147333 2.052037,0.648705 2.241816,4.482181 0.238554,4.818684 0.214652,5.160222 -0.404459,5.779334 l -0.530039,0.530038 -2.230312,-0.01891 c -1.226671,-0.0104 -2.940116,-0.05701 -3.807654,-0.103588 z M 16.705946,43.097609 C 16.038609,43.04144 14.291398,42.909007 12.823256,42.803315 10.470838,42.633963 7.8481814,42.351444 7.1148174,42.188388 5.9990872,41.940316 5.4218777,38.937699 5.4218777,33.381793 c 0,-2.009599 0,-2.009599 0.5264282,-2.608683 0.6863367,-0.78106 0.7501366,-0.81107 1.9222763,-0.904167 1.5269602,-0.121278 1.3841444,0.653356 1.3458714,-7.300016 C 9.178477,14.677153 9.3184396,15.436666 7.9015932,15.433796 6.2652924,15.430484 5.6366561,14.140841 5.2391941,9.9719054 5.1723896,9.2712011 5.0636299,8.3702956 4.9975057,7.9698932 4.6600693,5.9266101 4.8190753,4.8636641 5.5735453,4.1191034 6.3370179,3.3656585 6.8045669,3.1219363 7.7272251,2.9964414 8.0608938,2.9510578 9.0709999,2.7684104 9.9719054,2.5905587 12.528447,2.0858606 23.646484,2.0874179 25.624,2.5927512 c 0.700705,0.1790576 1.437809,0.3602948 1.63801,0.4027493 0.765284,0.1622855 2.843148,1.1952702 3.725494,1.8520835 5.760216,4.2878658 7.561311,11.325024 6.295745,24.59844 -0.07323,0.768035 -0.229779,1.416836 -0.527682,2.186901 -0.232961,0.602192 -0.460535,1.313719 -0.505721,1.581171 -0.420319,2.487849 -3.794059,6.619856 -6.662711,8.160189 -2.576733,1.383588 -8.114822,2.124508 -12.881189,1.723324 z m 5.460033,-13.176565 c 1.122831,-0.393623 2.487349,-2.085875 2.487349,-3.084767 0,-0.107745 0.120058,-0.629337 0.266797,-1.159091 0.777864,-2.808259 -0.06949,-8.037541 -1.518204,-9.369327 -0.613327,-0.563824 -2.593482,-1.153199 -2.847229,-0.847452 -0.197316,0.237751 -0.324186,8.682022 -0.180733,12.029281 0.136,3.173369 0.04142,3.045051 1.79202,2.431356 z"
         id="path764" />
      <path
         style="fill:#fb9a2d;stroke-width:0.121334"
         d="m 19.16798,78.405727 c -0.180758,-0.05449 -0.489489,-0.213596 -0.686068,-0.353573 -0.452599,-0.322278 -0.517018,-0.319309 -1.059505,0.04883 -1.31637,0.893314 -3.344638,-0.239696 -3.74434,-2.091621 -0.119109,-0.551865 0.334859,-0.516448 -6.7409722,-0.525917 -7.23820951,-0.0097 -6.79324914,0.03032 -6.79324914,-0.610796 v -0.472355 l 6.40037224,-0.0016 c 7.0044011,-0.0018 6.9453991,0.0022 6.9484551,-0.467498 0.01533,-2.354978 1.909985,-4.91681 4.257264,-5.756387 l 0.77602,-0.277569 0.14752,-1.450139 c 0.244332,-2.401842 0.817905,-4.223197 1.690028,-5.366608 0.359498,-0.471327 0.36004,-0.39964 -0.03007,-3.970248 -0.541066,-4.952225 -0.251876,-10.319753 0.645759,-11.985648 1.254678,-2.328518 5.618708,-1.12929 11.167413,3.068788 1.096694,0.829744 1.35156,0.972423 1.60678,0.899508 0.567359,-0.16209 10.425324,-0.206233 11.316203,-0.05067 0.820805,0.143324 0.820805,0.143324 2.123346,-0.827247 5.405327,-4.027712 9.724632,-5.38677 10.996504,-3.460022 1.279459,1.938236 1.509645,8.202623 0.55151,15.008939 -0.117352,0.833635 -0.117352,0.833635 0.350602,1.577343 0.919564,1.461441 1.379852,3.052489 1.542993,5.333569 0.08166,1.141748 0.09885,1.197655 0.403816,1.313432 2.749048,1.043643 4.625887,3.412779 4.625887,5.839262 0,0.318903 0.323137,0.604129 0.638376,0.563481 0.08266,-0.01066 3.057763,-0.01291 6.611334,-0.005 l 6.46104,0.01436 v 0.471185 c 0,0.647298 0.345327,0.617283 -7.123701,0.619165 l -6.577696,0.0017 -0.135927,0.51567 c -0.517685,1.96396 -2.239609,2.906689 -3.778906,2.068899 -0.488126,-0.265672 -0.640017,-0.300301 -0.805091,-0.183544 -1.35772,0.960304 -3.562711,0.722062 -4.761011,-0.514413 -0.503494,-0.519536 -0.527435,-0.529281 -1.143844,-0.465662 -0.800214,0.08259 -1.337429,-0.159946 -2.146603,-0.969121 -0.464245,-0.464245 -0.65757,-0.582019 -0.864359,-0.526568 -0.1465,0.03928 -1.771497,0.07217 -3.611104,0.07308 l -3.344742,0.0017 -0.492419,0.772388 c -2.108521,3.307332 -8.22647,2.93254 -10.217906,-0.62596 -0.07105,-0.126966 -0.867355,-0.158896 -3.878084,-0.155502 l -3.788668,0.0043 -0.576017,0.591374 c -0.671556,0.68946 -1.269104,0.927696 -2.084615,0.831111 -0.550512,-0.0652 -0.591318,-0.04865 -0.935553,0.379413 -0.744283,0.925533 -2.718487,1.48478 -3.940768,1.116331 z m 1.94265,-1.15819 c 0.974426,-0.289374 1.302842,-0.636319 1.275874,-1.347861 -0.03786,-0.998908 0.408846,-1.174483 1.190795,-0.46804 1.638859,1.480611 2.976677,-1.293536 1.81793,-3.769723 -1.824735,-3.899368 -8.322227,-3.772891 -10.200425,0.198555 -1.660513,3.511157 0.63621,7.565086 2.416029,4.264513 0.486299,-0.901814 1.21846,-0.780352 1.21846,0.202137 0,0.999402 0.854484,1.344149 2.281337,0.920419 z m 38.986692,-0.138411 c 0.136897,-0.136895 0.279211,-0.496807 0.32646,-0.825609 0.149035,-1.037143 0.679094,-1.060328 1.203204,-0.05263 1.441548,2.771651 3.726659,-0.185134 2.715603,-3.513816 -1.578453,-5.196714 -9.669716,-5.251319 -10.878791,-0.07341 -0.527493,2.259011 0.784214,3.989124 2.113741,2.787976 0.773436,-0.698754 1.229318,-0.530122 1.229318,0.45473 0,1.222076 2.399485,2.11374 3.290465,1.222759 z M 40.9197,77.140141 c 2.942744,-0.525004 3.975143,-2.93084 2.863561,-6.673062 -0.338707,-1.140284 -1.319504,-1.539879 -2.969578,-1.209865 -0.495332,0.09907 -0.484907,0.05002 -0.636345,2.993672 -0.149393,2.903893 -0.235863,3.625624 -0.442645,3.694552 -0.247994,0.08266 -0.374619,-0.782885 -0.51893,-3.547153 -0.180941,-3.465913 -0.04292,-3.215353 -1.771149,-3.215353 -1.311088,0 -1.645509,0.344739 -2.05979,2.123346 -0.753179,3.233582 0.489917,5.522399 3.187821,5.869488 1.165108,0.149894 1.320397,0.147536 2.347055,-0.03562 z m -7.084922,-2.891512 c 0.05264,-0.08342 0.102787,-0.632139 0.111427,-1.219382 0.01571,-1.067715 0.01571,-1.067715 -0.669926,-1.5953 -1.38104,-1.062686 -2.235347,-2.336553 -2.659656,-3.965848 -0.132658,-0.509388 -0.35857,-1.156233 -0.502028,-1.437434 -0.359712,-0.705095 -0.215408,-0.750731 0.415607,-0.131436 1.255772,1.232447 3.401489,0.975415 5.395722,-0.646342 0.984165,-0.800347 1.65535,-1.147654 2.407432,-1.245733 1.2971,-0.169154 1.45695,-0.973331 0.281946,-1.418428 -2.20519,-0.835338 -3.678923,-3.715407 -2.614633,-5.109702 0.424419,-0.556018 0.425027,-0.558581 0.091,-0.383297 -0.694105,0.364241 -1.378543,1.2363 -2.229379,2.840506 -0.56668,1.068445 -1.349328,1.982916 -2.151283,2.513625 -0.890102,0.589042 -0.921662,0.311631 -0.06913,-0.607638 0.433225,-0.467136 0.913287,-1.12234 1.066804,-1.456008 1.123304,-2.441472 1.098223,-2.290024 0.346003,-2.089246 -1.834586,0.489679 -3.688966,-1.250192 -2.831394,-2.656553 0.88744,-1.455341 3.381627,-1.033826 4.457911,0.753382 0.102024,0.169415 0.185321,0.19869 0.312213,0.109726 1.743241,-1.222165 2.49422,-1.454269 4.705337,-1.454269 1.952234,0 2.936259,0.249448 4.043367,1.024979 0.861986,0.603823 0.841222,0.604367 1.214051,-0.03182 0.825696,-1.408941 2.987099,-1.702685 4.030503,-0.54776 1.205767,1.334639 -0.868032,3.437531 -2.744784,2.783292 -0.563325,-0.196377 -0.56292,-0.156861 0.01239,1.206514 0.53585,1.269879 0.744123,1.588361 1.6789,2.567302 1.087194,1.138556 0.02879,0.820818 -1.131796,-0.339772 -0.523724,-0.523724 -0.930707,-1.093473 -1.321298,-1.849731 -0.841157,-1.628633 -2.263093,-3.216726 -2.588664,-2.891155 -0.04313,0.04313 -0.01987,0.07842 0.0517,0.07842 0.265257,0 0.880995,1.118824 0.880995,1.600809 0,1.330932 -1.647848,3.425978 -3.124352,3.972248 -1.076375,0.398232 -1.052141,1.342985 0.03445,1.342985 0.651595,0 1.637324,0.433793 2.361899,1.03941 2.291067,1.914929 4.317426,2.205712 5.723018,0.821255 0.639643,-0.630025 0.772278,-0.519869 0.358635,0.297848 -0.125246,0.247594 -0.286832,0.729181 -0.35908,1.070194 -0.343247,1.620125 -1.22751,3.037466 -2.573553,4.125018 -0.843673,0.681658 -0.843673,0.681658 -0.843673,1.807683 0,1.392867 -0.318959,1.273322 3.397354,1.273322 3.495971,0 3.396657,0.01899 3.39946,-0.649986 0.01345,-3.209103 2.646621,-5.860933 6.0603,-6.103242 1.318382,-0.09358 1.272923,-0.03133 1.106466,-1.515065 -0.320471,-2.856573 -0.823677,-3.849824 -3.095369,-6.109795 -1.244466,-1.238043 -2.003611,-2.122038 -2.799495,-3.259906 -3.930948,-5.620029 -5.745692,-6.680097 -11.344736,-6.626935 -1.034373,0.0098 -3.272987,0.03024 -4.974697,0.04537 -6.016395,0.0535 -7.245202,0.789621 -11.586346,6.940818 -0.511692,0.725045 -1.523287,1.87599 -2.549454,2.900651 -2.300439,2.297065 -2.843366,3.390122 -3.085291,6.211523 -0.124619,1.453329 -0.220661,1.319737 1.017189,1.414886 3.288643,0.252785 5.773204,2.578813 5.980611,5.599005 0.03666,0.53387 0.126938,1.010787 0.200612,1.059816 0.249469,0.166015 6.599977,0.11033 6.70672,-0.05881 z M 57.683829,58.435038 c 0.841524,-8.000636 0.475197,-12.849115 -1.004305,-13.292385 -1.30544,-0.391119 -4.528187,0.994653 -7.921319,3.406146 -1.318322,0.936928 -1.311329,0.919781 -0.518161,1.270558 1.973897,0.872952 3.631125,2.52827 6.084502,6.077494 0.883815,1.278588 2.917939,3.494614 3.140195,3.421011 0.07193,-0.02382 0.170523,-0.421093 0.219088,-0.882824 z M 23.092744,58.171865 c 0.567241,-0.58392 1.296806,-1.443876 1.621257,-1.911012 2.70184,-3.890044 4.156809,-5.379715 6.226799,-6.375313 0.966746,-0.464973 0.976518,-0.445979 -0.884252,-1.718629 -3.768518,-2.577428 -7.206219,-3.766268 -7.886868,-2.727467 -0.990242,1.5113 -1.178259,5.867957 -0.533774,12.368419 0.171161,1.726377 0.140757,1.718782 1.456838,0.364002 z m 10.032074,-2.193518 c 0.02883,-0.195924 -0.02379,-0.263497 -0.205173,-0.263497 -0.31934,0 -0.438855,0.207076 -0.250503,0.434025 0.197027,0.237404 0.407226,0.158742 0.455676,-0.170528 z m 14.681423,0 c 0.02883,-0.195924 -0.02379,-0.263497 -0.205174,-0.263497 -0.319339,0 -0.438854,0.207076 -0.250503,0.434025 0.197028,0.237404 0.407227,0.158742 0.455677,-0.170528 z m 4.182925,-12.646663 c -2.058939,-0.08958 -7.156516,-0.4029 -9.60196,-0.590173 -2.311177,-0.176991 -2.400317,-0.385304 -2.522125,-5.894109 l -0.08049,-3.640022 0.545648,-0.601681 c 0.545648,-0.601681 0.545648,-0.601681 1.443422,-0.650515 0.493775,-0.02686 0.966023,-0.104038 1.04944,-0.171513 0.239285,-0.193553 0.21926,-16.698305 -0.02066,-17.026213 -0.1353,-0.18492 -0.319314,-0.235525 -0.85644,-0.235525 -1.020182,0 -1.937758,-0.947483 -2.063116,-2.130362 -0.136301,-1.286133 -0.138075,-8.6440987 -0.0021,-8.8700423 0.778248,-1.2935424 1.323471,-1.3745633 8.712747,-1.294725 l 3.738048,0.040388 0.529633,0.6066703 c 0.527014,0.60367 1.813317,2.8988745 3.21297,5.7330349 0.821526,1.6635101 0.91053,1.7242191 1.339582,0.9137227 0.319503,-0.603556 0.523815,-0.9526099 2.23835,-3.8240923 0.990455,-1.6588002 2.014341,-3.0232306 2.480021,-3.3048766 0.116509,-0.070466 2.512592,-0.1371081 5.932485,-0.1650011 l 5.737034,-0.046792 0.584846,0.5896704 0.584845,0.5896702 0.07849,2.5979126 c 0.148982,4.9309682 0.112512,6.3717462 -0.176867,6.9873762 -0.359869,0.765585 -0.971644,1.273365 -1.538541,1.277006 -0.632247,0.0041 -1.375461,0.192547 -1.508865,0.382666 -0.06837,0.09744 -0.0828,3.471688 -0.03673,8.59316 0.08772,9.752835 -0.06827,8.798393 1.458816,8.925607 1.917064,0.159703 2.069208,0.440712 2.37087,4.378967 0.38263,4.995308 0.303972,5.574063 -0.8371,6.159366 -0.395397,0.202814 -10.652693,0.508358 -13.534689,0.40317 -3.318455,-0.121118 -3.347841,-0.170406 -3.347841,-5.61531 v -4.028038 l 0.495658,-0.622521 c 0.516333,-0.648486 0.517528,-0.648962 1.706082,-0.678979 0.979345,-0.02473 0.952946,0.06964 0.952946,-3.406495 0,-3.81394 -0.02607,-3.905126 -0.84603,-2.959542 -0.427978,0.493545 -0.427978,0.493545 -2.126655,0.724662 -2.805478,0.381703 -3.248073,0.337005 -4.034594,-0.40746 -0.621609,-0.58837 -0.652873,-0.452212 -0.641325,2.793037 0.01388,3.901036 0.01835,3.91398 1.352963,3.91707 1.366995,0.0032 1.861327,0.671673 1.97907,2.676394 0.358859,6.110054 0.326487,6.883765 -0.312929,7.47911 -0.599839,0.558496 -0.627672,0.560977 -4.434883,0.395327 z M 45.387195,23.37932 c 0.2075,-3.153535 0.236709,-3.327465 0.503482,-2.998015 0.200699,0.247852 0.327188,0.263969 2.318543,0.29541 l 2.106264,0.03326 0.03322,0.546003 c 0.01827,0.300302 0.08227,0.655204 0.142229,0.788671 0.05996,0.133468 0.147642,0.40647 0.194858,0.606671 l 0.08585,0.364002 0.105182,-0.364002 c 0.05785,-0.200201 0.10888,-0.968023 0.113401,-1.706272 0.0097,-1.586862 0.127499,-1.916963 0.703837,-1.972577 0.467737,-0.04513 1.279328,0.708279 1.411574,1.310386 0.04059,0.184787 0.207461,0.461551 0.370833,0.615031 0.163373,0.153481 0.297042,0.375694 0.297042,0.493808 0,0.118114 0.132703,0.367948 0.294895,0.555187 0.390437,0.450732 0.583953,0.276283 0.430043,-0.387677 -0.230264,-0.993352 -0.460102,-0.91832 2.701153,-0.881801 3.180076,0.03674 3.232497,0.05501 2.546111,0.887718 -0.2274,0.275874 -0.336557,0.526762 -0.303781,0.698213 0.09929,0.519382 -0.58779,1.255401 -1.259719,1.349453 -1.646757,0.230501 -1.73747,0.356029 -0.344011,0.476042 0.947788,0.08163 1.033028,0.05086 1.293248,-0.466839 0.504275,-1.003235 0.937478,-1.707431 1.345768,-2.187623 0.183518,-0.215835 0.333669,-0.446107 0.333669,-0.511715 0,-0.06561 0.09886,-0.249501 0.219701,-0.408651 0.120836,-0.15915 0.287581,-0.523928 0.370545,-0.810617 0.18757,-0.648157 0.552027,-0.858059 1.064348,-0.612988 0.347418,0.166189 0.347418,0.166189 0.444061,3.319564 0.134215,4.379363 0.211424,4.320518 0.638523,-0.486647 0.120534,-1.356655 -0.05943,-1.274007 2.774111,-1.274007 2.787551,0 2.739428,-0.01662 2.739428,0.945931 0,0.360101 0.09069,0.963435 0.201529,1.340741 0.376225,1.280679 0.502291,0.04721 0.628539,-6.14983 0.0952,-4.6732 -0.05406,-4.30563 1.799448,-4.431186 1.737715,-0.117714 1.617176,0.205298 1.617176,-4.3335726 0,-3.5770524 -0.01045,-3.7492347 -0.234692,-3.8692484 C 72.786422,3.9984474 69.139889,3.9939817 65.559169,4.142943 62.339247,4.2768923 62.880945,3.8800134 60.570848,7.7976774 60.4693,7.9698898 60.115451,8.5977937 59.784516,9.1930192 59.45358,9.7882446 59.071378,10.440737 58.935178,10.643003 c -0.136202,0.202265 -0.54794,0.954262 -0.914976,1.671104 -0.664988,1.298761 -0.923135,1.556486 -1.38248,1.380219 -0.09333,-0.03581 -1.062603,-1.856903 -2.15395,-4.0468678 -2.343242,-4.7020898 -2.71533,-5.359164 -3.087717,-5.4526273 -0.737191,-0.1850229 -9.623213,0.010795 -9.828924,0.2165958 -0.368547,0.3687103 -0.191108,6.5785843 0.218733,7.6550413 0.149458,0.392555 0.316756,0.442729 1.612359,0.483569 1.330551,0.04194 1.227523,-0.450689 1.389367,6.643265 0.175334,7.685258 0.308288,8.613445 0.59961,4.186025 z m 10.409468,0.605722 c 0.05847,-0.17805 -0.450711,-0.467359 -0.585432,-0.332638 -0.184294,0.184295 0.02583,0.531877 0.297224,0.491669 0.13643,-0.02021 0.266124,-0.09178 0.288208,-0.159031 z m -0.809817,-1.188125 c 0,-0.275983 -0.200366,-0.570271 -0.38827,-0.570271 -0.136361,0 -0.120778,0.335651 0.02854,0.614647 0.170802,0.319147 0.359734,0.295841 0.359734,-0.04438 z M 15.492606,42.915149 C 14.291398,42.822399 12.594027,42.69068 11.720669,42.622439 6.517137,42.215855 5.8556211,41.873045 5.8447361,39.577419 5.8429961,39.210383 5.7615116,37.981876 5.6636601,36.847402 5.4292814,34.130053 5.4256943,31.78859 5.6552298,31.344716 6.1105129,30.464296 6.8260045,30.023187 7.9507569,29.929495 8.5740862,29.877571 9.0488109,29.777562 9.1286631,29.681346 9.2341014,29.554301 9.3194651,19.798985 9.248764,15.956275 9.2393691,15.445654 8.9359996,15.301808 7.9448114,15.337987 6.9172902,15.375494 6.2173498,14.850621 5.9873133,13.870092 5.530305,11.922101 5.0299909,8.0638241 4.9712398,6.0344297 4.9201482,4.269611 5.8824289,3.3876534 8.2826405,2.9994368 8.9114343,2.897734 9.8354045,2.7320505 10.335908,2.6312515 10.876184,2.5224421 12.675532,2.3919867 14.764601,2.3101643 21.420987,2.0494546 25.96004,2.4388802 28.20985,3.4636919 c 0.346227,0.1577098 0.766004,0.3291843 0.932838,0.3810544 1.072611,0.3334832 3.707278,2.5658068 4.832709,4.0946991 1.998936,2.7155466 3.200949,6.3896586 3.473027,10.6157676 0.0397,0.616694 0.125467,1.402201 0.190586,1.745572 0.150342,0.792753 0.15359,3.556995 0.0053,4.524606 -0.06219,0.405868 -0.174985,1.611548 -0.250648,2.679288 -0.175089,2.470838 -0.303209,3.210195 -0.725376,4.186025 -0.187661,0.433769 -0.378628,0.979773 -0.424374,1.213341 -0.572391,2.922481 -3.63351,6.724799 -6.775846,8.416506 -2.724535,1.46678 -7.933499,2.061121 -13.975474,1.594598 z M 21.74131,30.174028 c 0.166835,-0.08137 0.442237,-0.181125 0.612006,-0.221677 3.732021,-0.891473 3.986046,-12.493615 0.310022,-14.159618 -2.574997,-1.16701 -2.402692,-1.683217 -2.356142,7.05876 0.04502,8.45478 -0.03628,8.039686 1.434114,7.322535 z m -10.0787,-6.548362 c 0.05436,-0.06876 0.137905,-0.833941 0.18566,-1.70041 0.121186,-2.198767 -0.155391,-2.003957 2.845077,-2.003957 2.874205,0 2.739053,-0.04905 2.84171,1.03134 0.165966,1.746656 0.301867,2.63552 0.421202,2.754855 0.209028,0.209028 0.254842,-0.40371 0.384254,-5.139031 0.15678,-5.736779 -0.03984,-5.320513 2.513149,-5.320585 2.721064,-7.5e-5 4.97915,1.612905 5.621872,4.015779 0.0786,0.293863 0.268142,0.807298 0.421199,1.140966 0.244504,0.533028 0.287854,0.871786 0.357115,2.790684 0.103709,2.873325 0.197823,3.719285 0.337462,3.033352 0.155688,-0.764771 0.334107,-2.099853 0.417469,-3.123856 0.102684,-1.261352 -0.106392,-1.192634 3.514861,-1.15525 l 3.139749,0.03241 0.15484,0.728005 c 0.08516,0.400402 0.210235,1.110206 0.277938,1.577343 0.347253,2.395947 0.634963,0.766132 0.353413,-2.002013 -0.06448,-0.63397 -0.174581,-2.019466 -0.244665,-3.078878 -0.09851,-1.489104 -0.181295,-2.031795 -0.364811,-2.391514 -0.13056,-0.255921 -0.239779,-0.644936 -0.242708,-0.864479 -0.0029,-0.219543 -0.08991,-0.617571 -0.193282,-0.884506 -0.103377,-0.266935 -0.288648,-0.770057 -0.411716,-1.11805 C 33.075826,9.3561072 29.893112,6.0286454 27.855051,5.5314038 27.662346,5.4843881 27.222472,5.3180937 26.877555,5.1618608 26.532637,5.0056278 25.850133,4.8221159 25.360879,4.7540566 24.871625,4.6859973 23.952624,4.5254807 23.318653,4.397353 21.018926,3.93257 14.998328,3.9611734 12.25913,4.449896 11.681926,4.5528797 10.683949,4.6868771 10.041404,4.7476677 8.7223017,4.8724673 6.9957294,5.3916641 6.8223235,5.7156762 c -0.070364,0.1314756 -0.0708,0.5087274 -0.00114,0.9906107 0.061873,0.4280486 0.1142397,1.0512717 0.1163705,1.3849404 0.00213,0.3336687 0.1340411,1.1295733 0.2931336,1.7686769 0.1590924,0.6391038 0.3287732,1.6363698 0.3770684,2.2161478 0.1061883,1.274777 0.04254,1.230633 1.7128736,1.187985 1.7991954,-0.04594 1.7422934,-0.126355 1.7462664,2.467901 0.0075,4.910094 0.328858,10.984662 0.45929,8.682399 0.02068,-0.365011 0.08207,-0.719913 0.13643,-0.788671 z"
         id="path762" />
      <path
         style="fill:#a3682b;stroke-width:0.121334"
         d="m 19.16798,78.405727 c -0.180758,-0.05449 -0.489489,-0.213596 -0.686068,-0.353573 -0.452599,-0.322278 -0.517018,-0.319309 -1.059505,0.04883 -1.31637,0.893314 -3.344638,-0.239696 -3.74434,-2.091621 -0.119109,-0.551865 0.334859,-0.516448 -6.7409722,-0.525917 -7.23820951,-0.0097 -6.79324914,0.03032 -6.79324914,-0.610796 v -0.472355 l 6.40037224,-0.0016 c 7.0044011,-0.0018 6.9453991,0.0022 6.9484551,-0.467498 0.01533,-2.354978 1.909985,-4.91681 4.257264,-5.756387 l 0.77602,-0.277569 0.14752,-1.450139 c 0.244332,-2.401842 0.817905,-4.223197 1.690028,-5.366608 0.359498,-0.471327 0.36004,-0.39964 -0.03007,-3.970248 -0.541066,-4.952225 -0.251876,-10.319753 0.645759,-11.985648 1.254678,-2.328518 5.618708,-1.12929 11.167413,3.068788 1.096694,0.829744 1.35156,0.972423 1.60678,0.899508 0.567359,-0.16209 10.425324,-0.206233 11.316203,-0.05067 0.820805,0.143324 0.820805,0.143324 2.123346,-0.827247 5.405327,-4.027712 9.724632,-5.38677 10.996504,-3.460022 1.279459,1.938236 1.509645,8.202623 0.55151,15.008939 -0.117352,0.833635 -0.117352,0.833635 0.350602,1.577343 0.919564,1.461441 1.379852,3.052489 1.542993,5.333569 0.08166,1.141748 0.09885,1.197655 0.403816,1.313432 2.749048,1.043643 4.625887,3.412779 4.625887,5.839262 0,0.318903 0.323137,0.604129 0.638376,0.563481 0.08266,-0.01066 3.057763,-0.01291 6.611334,-0.005 l 6.46104,0.01436 v 0.471185 c 0,0.647298 0.345327,0.617283 -7.123701,0.619165 l -6.577696,0.0017 -0.135927,0.51567 c -0.517685,1.96396 -2.239609,2.906689 -3.778906,2.068899 -0.488126,-0.265672 -0.640017,-0.300301 -0.805091,-0.183544 -1.35772,0.960304 -3.562711,0.722062 -4.761011,-0.514413 -0.503494,-0.519536 -0.527435,-0.529281 -1.143844,-0.465662 -0.800214,0.08259 -1.337429,-0.159946 -2.146603,-0.969121 -0.464245,-0.464245 -0.65757,-0.582019 -0.864359,-0.526568 -0.1465,0.03928 -1.771497,0.07217 -3.611104,0.07308 l -3.344742,0.0017 -0.492419,0.772388 c -2.108521,3.307332 -8.22647,2.93254 -10.217906,-0.62596 -0.07105,-0.126966 -0.867355,-0.158896 -3.878084,-0.155502 l -3.788668,0.0043 -0.576017,0.591374 c -0.671556,0.68946 -1.269104,0.927696 -2.084615,0.831111 -0.550512,-0.0652 -0.591318,-0.04865 -0.935553,0.379413 -0.744283,0.925533 -2.718487,1.48478 -3.940768,1.116331 z m 1.94265,-1.15819 c 0.974426,-0.289374 1.302842,-0.636319 1.275874,-1.347861 -0.03786,-0.998908 0.408846,-1.174483 1.190795,-0.46804 1.638859,1.480611 2.976677,-1.293536 1.81793,-3.769723 -1.824735,-3.899368 -8.322227,-3.772891 -10.200425,0.198555 -1.660513,3.511157 0.63621,7.565086 2.416029,4.264513 0.486299,-0.901814 1.21846,-0.780352 1.21846,0.202137 0,0.999402 0.854484,1.344149 2.281337,0.920419 z m 38.986692,-0.138411 c 0.136897,-0.136895 0.279211,-0.496807 0.32646,-0.825609 0.149035,-1.037143 0.679094,-1.060328 1.203204,-0.05263 1.441548,2.771651 3.726659,-0.185134 2.715603,-3.513816 -1.578453,-5.196714 -9.669716,-5.251319 -10.878791,-0.07341 -0.527493,2.259011 0.784214,3.989124 2.113741,2.787976 0.773436,-0.698754 1.229318,-0.530122 1.229318,0.45473 0,1.222076 2.399485,2.11374 3.290465,1.222759 z M 40.9197,77.140141 c 2.942744,-0.525004 3.975143,-2.93084 2.863561,-6.673062 -0.338707,-1.140284 -1.319504,-1.539879 -2.969578,-1.209865 -0.495332,0.09907 -0.484907,0.05002 -0.636345,2.993672 -0.149393,2.903893 -0.235863,3.625624 -0.442645,3.694552 -0.247994,0.08266 -0.374619,-0.782885 -0.51893,-3.547153 -0.180941,-3.465913 -0.04292,-3.215353 -1.771149,-3.215353 -1.311088,0 -1.645509,0.344739 -2.05979,2.123346 -0.753179,3.233582 0.489917,5.522399 3.187821,5.869488 1.165108,0.149894 1.320397,0.147536 2.347055,-0.03562 z m -7.084922,-2.891512 c 0.05264,-0.08342 0.102787,-0.632139 0.111427,-1.219382 0.01571,-1.067715 0.01571,-1.067715 -0.669926,-1.5953 -1.38104,-1.062686 -2.235347,-2.336553 -2.659656,-3.965848 -0.132658,-0.509388 -0.35857,-1.156233 -0.502028,-1.437434 -0.359712,-0.705095 -0.215408,-0.750731 0.415607,-0.131436 1.255772,1.232447 3.401489,0.975415 5.395722,-0.646342 0.984165,-0.800347 1.65535,-1.147654 2.407432,-1.245733 1.2971,-0.169154 1.45695,-0.973331 0.281946,-1.418428 -2.20519,-0.835338 -3.678923,-3.715407 -2.614633,-5.109702 0.424419,-0.556018 0.425027,-0.558581 0.091,-0.383297 -0.694105,0.364241 -1.378543,1.2363 -2.229379,2.840506 -0.56668,1.068445 -1.349328,1.982916 -2.151283,2.513625 -0.890102,0.589042 -0.921662,0.311631 -0.06913,-0.607638 0.433225,-0.467136 0.913287,-1.12234 1.066804,-1.456008 1.123304,-2.441472 1.098223,-2.290024 0.346003,-2.089246 -1.834586,0.489679 -3.688966,-1.250192 -2.831394,-2.656553 0.88744,-1.455341 3.381627,-1.033826 4.457911,0.753382 0.102024,0.169415 0.185321,0.19869 0.312213,0.109726 1.743241,-1.222165 2.49422,-1.454269 4.705337,-1.454269 1.952234,0 2.936259,0.249448 4.043367,1.024979 0.861986,0.603823 0.841222,0.604367 1.214051,-0.03182 0.825696,-1.408941 2.987099,-1.702685 4.030503,-0.54776 1.205767,1.334639 -0.868032,3.437531 -2.744784,2.783292 -0.563325,-0.196377 -0.56292,-0.156861 0.01239,1.206514 0.53585,1.269879 0.744123,1.588361 1.6789,2.567302 1.087194,1.138556 0.02879,0.820818 -1.131796,-0.339772 -0.523724,-0.523724 -0.930707,-1.093473 -1.321298,-1.849731 -0.841157,-1.628633 -2.263093,-3.216726 -2.588664,-2.891155 -0.04313,0.04313 -0.01987,0.07842 0.0517,0.07842 0.265257,0 0.880995,1.118824 0.880995,1.600809 0,1.330932 -1.647848,3.425978 -3.124352,3.972248 -1.076375,0.398232 -1.052141,1.342985 0.03445,1.342985 0.651595,0 1.637324,0.433793 2.361899,1.03941 2.291067,1.914929 4.317426,2.205712 5.723018,0.821255 0.639643,-0.630025 0.772278,-0.519869 0.358635,0.297848 -0.125246,0.247594 -0.286832,0.729181 -0.35908,1.070194 -0.343247,1.620125 -1.22751,3.037466 -2.573553,4.125018 -0.843673,0.681658 -0.843673,0.681658 -0.843673,1.807683 0,1.392867 -0.318959,1.273322 3.397354,1.273322 3.495971,0 3.396657,0.01899 3.39946,-0.649986 0.01345,-3.209103 2.646621,-5.860933 6.0603,-6.103242 1.318382,-0.09358 1.272923,-0.03133 1.106466,-1.515065 -0.320471,-2.856573 -0.823677,-3.849824 -3.095369,-6.109795 -1.244466,-1.238043 -2.003611,-2.122038 -2.799495,-3.259906 -3.930948,-5.620029 -5.745692,-6.680097 -11.344736,-6.626935 -1.034373,0.0098 -3.272987,0.03024 -4.974697,0.04537 -6.016395,0.0535 -7.245202,0.789621 -11.586346,6.940818 -0.511692,0.725045 -1.523287,1.87599 -2.549454,2.900651 -2.300439,2.297065 -2.843366,3.390122 -3.085291,6.211523 -0.124619,1.453329 -0.220661,1.319737 1.017189,1.414886 3.288643,0.252785 5.773204,2.578813 5.980611,5.599005 0.03666,0.53387 0.126938,1.010787 0.200612,1.059816 0.249469,0.166015 6.599977,0.11033 6.70672,-0.05881 z M 57.683829,58.435038 c 0.841524,-8.000636 0.475197,-12.849115 -1.004305,-13.292385 -1.30544,-0.391119 -4.528187,0.994653 -7.921319,3.406146 -1.318322,0.936928 -1.311329,0.919781 -0.518161,1.270558 1.973897,0.872952 3.631125,2.52827 6.084502,6.077494 0.883815,1.278588 2.917939,3.494614 3.140195,3.421011 0.07193,-0.02382 0.170523,-0.421093 0.219088,-0.882824 z M 23.092744,58.171865 c 0.567241,-0.58392 1.296806,-1.443876 1.621257,-1.911012 2.70184,-3.890044 4.156809,-5.379715 6.226799,-6.375313 0.966746,-0.464973 0.976518,-0.445979 -0.884252,-1.718629 -3.768518,-2.577428 -7.206219,-3.766268 -7.886868,-2.727467 -0.990242,1.5113 -1.178259,5.867957 -0.533774,12.368419 0.171161,1.726377 0.140757,1.718782 1.456838,0.364002 z m 10.032074,-2.193518 c 0.02883,-0.195924 -0.02379,-0.263497 -0.205173,-0.263497 -0.31934,0 -0.438855,0.207076 -0.250503,0.434025 0.197027,0.237404 0.407226,0.158742 0.455676,-0.170528 z m 14.681423,0 c 0.02883,-0.195924 -0.02379,-0.263497 -0.205174,-0.263497 -0.319339,0 -0.438854,0.207076 -0.250503,0.434025 0.197028,0.237404 0.407227,0.158742 0.455677,-0.170528 z m 4.182925,-12.646663 c -2.058939,-0.08958 -7.156516,-0.4029 -9.60196,-0.590173 -2.311177,-0.176991 -2.400317,-0.385304 -2.522125,-5.894109 l -0.08049,-3.640022 0.545648,-0.601681 c 0.545648,-0.601681 0.545648,-0.601681 1.443422,-0.650515 0.493775,-0.02686 0.966023,-0.104038 1.04944,-0.171513 0.239285,-0.193553 0.21926,-16.698305 -0.02066,-17.026213 -0.1353,-0.18492 -0.319314,-0.235525 -0.85644,-0.235525 -1.020182,0 -1.937758,-0.947483 -2.063116,-2.130362 -0.136301,-1.286133 -0.138075,-8.6440987 -0.0021,-8.8700423 0.778248,-1.2935424 1.323471,-1.3745633 8.712747,-1.294725 l 3.738048,0.040388 0.529633,0.6066703 c 0.527014,0.60367 1.813317,2.8988745 3.21297,5.7330349 0.821526,1.6635101 0.91053,1.7242191 1.339582,0.9137227 0.319503,-0.603556 0.523815,-0.9526099 2.23835,-3.8240923 0.990455,-1.6588002 2.014341,-3.0232306 2.480021,-3.3048766 0.116509,-0.070466 2.512592,-0.1371081 5.932485,-0.1650011 l 5.737034,-0.046792 0.584846,0.5896704 0.584845,0.5896702 0.07849,2.5979126 c 0.148982,4.9309682 0.112512,6.3717462 -0.176867,6.9873762 -0.359869,0.765585 -0.971644,1.273365 -1.538541,1.277006 -0.632247,0.0041 -1.375461,0.192547 -1.508865,0.382666 -0.06837,0.09744 -0.0828,3.471688 -0.03673,8.59316 0.08772,9.752835 -0.06827,8.798393 1.458816,8.925607 1.917064,0.159703 2.069208,0.440712 2.37087,4.378967 0.38263,4.995308 0.303972,5.574063 -0.8371,6.159366 -0.395397,0.202814 -10.652693,0.508358 -13.534689,0.40317 -3.318455,-0.121118 -3.347841,-0.170406 -3.347841,-5.61531 v -4.028038 l 0.495658,-0.622521 c 0.516333,-0.648486 0.517528,-0.648962 1.706082,-0.678979 0.979345,-0.02473 0.952946,0.06964 0.952946,-3.406495 0,-3.81394 -0.02607,-3.905126 -0.84603,-2.959542 -0.427978,0.493545 -0.427978,0.493545 -2.126655,0.724662 -2.805478,0.381703 -3.248073,0.337005 -4.034594,-0.40746 -0.621609,-0.58837 -0.652873,-0.452212 -0.641325,2.793037 0.01388,3.901036 0.01835,3.91398 1.352963,3.91707 1.366995,0.0032 1.861327,0.671673 1.97907,2.676394 0.358859,6.110054 0.326487,6.883765 -0.312929,7.47911 -0.599839,0.558496 -0.627672,0.560977 -4.434883,0.395327 z m 3.171591,-1.921166 c 0.09461,-0.153082 -0.07307,-6.40197 -0.176273,-6.568949 -0.04683,-0.07577 -0.515353,-0.161081 -1.042356,-0.189797 -2.255695,-0.122909 -2.036474,0.592422 -2.283272,-7.450429 -0.109555,-3.570255 -0.226835,-6.632037 -0.260623,-6.803963 -0.319678,-1.626658 0.89633,-1.083376 1.921759,0.858594 2.049352,3.881087 1.564514,3.462596 3.808926,3.287706 2.239983,-0.174546 2.215686,-0.150752 4.286705,-4.197712 0.474438,-0.927093 0.836849,-1.147708 1.094504,-0.666273 0.239756,0.447987 0.18792,13.815865 -0.05451,14.058299 -0.137797,0.137796 -0.515786,0.20195 -1.398858,0.237418 -0.898421,0.03609 -1.249938,0.09685 -1.364962,0.235947 -0.209803,0.253713 -0.1894,6.411865 0.02194,6.621985 0.188915,0.187825 13.7579,0.12974 14.11321,-0.06042 0.222019,-0.118821 0.235023,-0.215117 0.167236,-1.238511 -0.04043,-0.610319 -0.109685,-1.996879 -0.153908,-3.081244 -0.09922,-2.432971 -0.03738,-2.335716 -1.572499,-2.473122 C 69.914973,33.76945 70.139367,34.85634 70.063175,23.301664 69.985435,11.512493 69.819713,12.588843 71.733506,12.453162 73.562503,12.323493 73.455796,12.61328 73.35872,8.0395499 73.290345,4.8181523 73.253896,4.3081884 73.081801,4.1651384 72.759934,3.8975936 63.458014,4.0812857 62.882953,4.3665429 62.443716,4.5844249 59.609792,9.1280085 57.770685,12.562962 57.038084,13.931259 56.73793,13.908991 55.984975,12.430486 53.868966,8.2754835 52.477875,5.6092833 52.027175,4.8448585 51.581723,4.0893359 51.84716,4.1215394 46.44932,4.1681392 c -4.247577,0.03667 -4.698879,0.059835 -4.889946,0.2510065 -0.231771,0.2318985 -0.261812,4.9211656 -0.04397,6.8636613 0.136041,1.213073 0.232293,1.294688 1.544948,1.310011 1.649004,0.01925 1.486455,-0.981853 1.522097,9.374268 0.04233,12.298213 0.06249,11.417694 -0.267634,11.685015 -0.224389,0.181699 -0.491001,0.222616 -1.450551,0.222616 -1.615051,0 -1.630552,0.03566 -1.34482,3.094019 0.06235,0.667337 0.150516,1.745827 0.195932,2.396644 0.105985,1.518819 -0.1684,1.40542 3.759513,1.553743 1.861522,0.07029 4.503893,0.227803 5.871934,0.350019 2.906732,0.259678 3.722139,0.289903 3.813934,0.141376 z M 15.492606,42.915149 C 14.291398,42.822399 12.594027,42.69068 11.720669,42.622439 6.517137,42.215855 5.8556211,41.873045 5.8447361,39.577419 5.8429961,39.210383 5.7615116,37.981876 5.6636601,36.847402 5.4292814,34.130053 5.4256943,31.78859 5.6552298,31.344716 6.1105129,30.464296 6.8260045,30.023187 7.9507569,29.929495 8.5740862,29.877571 9.0488109,29.777562 9.1286631,29.681346 9.2341014,29.554301 9.3194651,19.798985 9.248764,15.956275 9.2393691,15.445654 8.9359996,15.301808 7.9448114,15.337987 6.9172902,15.375494 6.2173498,14.850621 5.9873133,13.870092 5.530305,11.922101 5.0299909,8.0638241 4.9712398,6.0344297 4.9201482,4.269611 5.8824289,3.3876534 8.2826405,2.9994368 8.9114343,2.897734 9.8354045,2.7320505 10.335908,2.6312515 10.876184,2.5224421 12.675532,2.3919867 14.764601,2.3101643 21.420987,2.0494546 25.96004,2.4388802 28.20985,3.4636919 c 0.346227,0.1577098 0.766004,0.3291843 0.932838,0.3810544 1.072611,0.3334832 3.707278,2.5658068 4.832709,4.0946991 1.998936,2.7155466 3.200949,6.3896586 3.473027,10.6157676 0.0397,0.616694 0.125467,1.402201 0.190586,1.745572 0.150342,0.792753 0.15359,3.556995 0.0053,4.524606 -0.06219,0.405868 -0.174985,1.611548 -0.250648,2.679288 -0.175089,2.470838 -0.303209,3.210195 -0.725376,4.186025 -0.187661,0.433769 -0.378628,0.979773 -0.424374,1.213341 -0.572391,2.922481 -3.63351,6.724799 -6.775846,8.416506 -2.724535,1.46678 -7.933499,2.061121 -13.975474,1.594598 z m 9.888726,-2.357759 c 0.700705,-0.204489 1.383209,-0.374302 1.516676,-0.377363 0.133468,-0.0031 0.54297,-0.167189 0.910006,-0.364727 0.367035,-0.197538 0.724988,-0.359173 0.79545,-0.359188 0.598733,-1.21e-4 3.083565,-2.109789 4.004454,-3.399842 0.70461,-0.987071 1.994804,-3.687915 1.994804,-4.175847 0,-0.106853 0.128798,-0.562926 0.286218,-1.013497 0.157421,-0.450573 0.324917,-1.200301 0.372213,-1.666065 0.0473,-0.465764 0.198008,-1.556648 0.334914,-2.424187 C 36.417787,21.569654 35.481434,14.420415 33.48251,10.639243 32.017413,7.8678612 28.829665,5.4099067 25.988003,4.8605057 23.31227,4.3431853 22.599643,4.2331739 21.322722,4.1403048 18.314894,3.9215487 14.226112,4.0574793 12.131534,4.4458634 11.577709,4.5485559 10.578576,4.6878902 9.9112383,4.7554954 8.6353434,4.8847511 7.3550946,5.2408336 6.9369667,5.5827456 c -0.2792005,0.2283081 -0.091205,3.2066636 0.303852,4.8138294 0.098423,0.400402 0.2150564,1.151495 0.2591856,1.669096 0.1154557,1.354202 0.1145535,1.353509 1.7148295,1.31658 1.9278842,-0.04449 1.7277442,-1.105723 1.7277442,9.161286 0,10.156663 0.202821,9.061306 -1.7115649,9.243509 -2.0460339,0.194731 -2.0104721,0.133789 -1.8206437,3.120008 0.07417,1.16678 0.1348546,2.739096 0.1348546,3.494036 0,1.794864 -0.076665,1.719772 1.9358749,1.896172 0.8978971,0.0787 2.0445041,0.2264 2.5480151,0.32822 2.700138,0.546016 11.399925,0.50165 13.352218,-0.06809 z m -6.203984,-8.313981 c -0.527966,-0.299926 -0.528855,-0.314325 -0.564301,-9.139937 -0.04297,-10.69835 -0.273664,-9.734213 2.329206,-9.734213 4.45264,0 6.410709,3.71944 6.004284,11.405403 -0.189336,3.580526 -1.502122,5.996009 -3.870552,7.121689 -1.08225,0.514376 -3.262451,0.708458 -3.898637,0.347058 z m 2.563962,-2.069381 c 0.166835,-0.08137 0.442237,-0.181125 0.612006,-0.221677 3.732021,-0.891473 3.986046,-12.493615 0.310022,-14.159618 -2.574997,-1.16701 -2.402692,-1.683217 -2.356142,7.05876 0.04502,8.45478 -0.03628,8.039686 1.434114,7.322535 z"
         id="path760" />
      <path
         style="fill:#28211a;stroke-width:0.121334"
         d="m 19.151458,78.234719 c -0.25658,-0.09554 -0.5877,-0.287569 -0.735825,-0.426726 -0.345406,-0.324492 -0.391873,-0.319387 -1.030274,0.1132 -1.2369,0.838133 -2.99551,0.01027 -3.473904,-1.635359 -0.32744,-1.126356 0.295849,-1.036199 -7.1635693,-1.036199 -6.60404004,0 -6.60404004,0 -6.60404004,-0.364002 0,-0.364002 0,-0.364002 6.59785004,-0.364002 5.1345603,0 6.6239783,-0.03364 6.7156573,-0.151668 0.06479,-0.08342 0.207639,-0.61577 0.317434,-1.183007 0.481616,-2.488181 2.06642,-4.323784 4.303325,-4.98434 0.669952,-0.197837 0.702896,-0.275395 0.794726,-1.871035 0.116488,-2.024066 0.703438,-3.913453 1.63263,-5.25543 0.338415,-0.488752 0.360933,-0.620823 0.252097,-1.478611 -1.043938,-8.22781 -0.62179,-14.12247 1.092689,-15.257759 1.537035,-1.017789 5.74606,0.60731 10.160419,3.922926 l 1.395868,1.048434 0.931759,-0.140301 c 0.98581,-0.148439 10.362461,-0.104887 11.185984,0.05195 0.390511,0.07437 0.517398,0.01272 1.516676,-0.73695 5.314891,-3.987296 9.612899,-5.461187 10.953915,-3.756362 1.300018,1.652705 1.555534,7.073546 0.677051,14.363771 -0.180478,1.497726 -0.180478,1.497726 0.306637,2.305347 0.926383,1.535912 1.468316,3.509725 1.468316,5.347863 0,1.124126 0.08259,1.252495 1.012945,1.574341 2.24334,0.776061 4.083086,3.303482 4.083086,5.609296 0,0.588692 0.0343,0.59153 7.150733,0.59153 6.681351,0 6.681351,0 6.681351,0.364002 0,0.364002 0,0.364002 -6.775903,0.364002 -7.650373,0 -7.002159,-0.0885 -7.294746,0.995927 -0.316757,1.174007 -1.559589,2.126153 -2.619339,2.006703 -0.471331,-0.05312 -0.705327,-0.163369 -1.331006,-0.627079 -0.101389,-0.07514 -0.338557,0.01254 -0.723366,0.267424 -1.288041,0.853163 -3.664315,0.423368 -4.552038,-0.823324 -0.258196,-0.362603 -0.294367,-0.374612 -0.900288,-0.298908 -0.832191,0.103976 -1.386943,-0.132548 -2.144385,-0.91428 L 52.446305,75.24963 h -3.622609 c -4.080956,0 -3.738096,-0.07773 -4.37794,0.992521 -1.777979,2.97399 -8.169506,2.73308 -9.773332,-0.368378 -0.316035,-0.611144 -0.405625,-0.624143 -4.301738,-0.624143 h -3.641319 l -0.522349,0.55838 c -0.754179,0.806199 -1.320428,1.065529 -2.121113,0.971424 -0.643386,-0.07562 -0.643386,-0.07562 -1.220988,0.520106 -0.851884,0.878607 -2.649591,1.331331 -3.713459,0.935174 z m -2.142177,-1.035074 c 0.166835,-0.117701 0.469102,-0.509055 0.671706,-0.869672 0.4955,-0.881949 0.807473,-0.898418 0.92819,-0.049 0.13747,0.967308 0.61601,1.321696 1.681757,1.245442 1.502307,-0.10749 2.412642,-0.805885 2.261827,-1.735244 -0.122871,-0.757165 0.332834,-0.863115 1.024538,-0.238203 1.21447,1.097201 2.498186,-0.07124 2.387329,-2.172954 -0.323757,-6.138085 -10.09563,-6.324957 -11.369278,-0.217421 -0.574149,2.753229 0.852288,5.138797 2.413931,4.03705 z m 42.934664,0.182437 c 0.377217,-0.195067 0.624268,-0.647489 0.624268,-1.143216 0,-0.353804 0.191803,-0.625229 0.441821,-0.625229 0.08284,0 0.324168,0.325613 0.536284,0.723582 1.594278,2.991173 4.089786,-0.405109 2.859161,-3.891198 -1.912851,-5.41869 -10.679893,-4.829039 -11.194637,0.752924 -0.19646,2.130442 1.189676,3.450895 2.471123,2.354025 0.76772,-0.65714 0.995511,-0.550144 0.984376,0.462375 -0.01209,1.098445 2.096289,1.977618 3.277604,1.366737 z M 42.280319,76.970715 c 1.886744,-0.928841 2.614291,-3.134728 1.918014,-5.815327 -0.497432,-1.915064 -0.901783,-2.255836 -2.592416,-2.184795 -1.537211,0.0646 -1.501445,0.0064 -1.648315,2.680268 -0.112163,2.041938 -0.164351,2.399042 -0.326856,2.236537 -0.0374,-0.0374 -0.134123,-1.055828 -0.214932,-2.263167 -0.178079,-2.660625 -0.123039,-2.570539 -1.616655,-2.646047 -1.70591,-0.08624 -2.119555,0.246915 -2.589897,2.085933 -0.628911,2.459019 -0.105926,4.641831 1.341671,5.599806 1.398936,0.925772 4.170588,1.074185 5.729386,0.306792 z M 33.96896,74.369963 c 0.06817,-0.08342 0.125067,-0.664765 0.126429,-1.291884 0.0027,-1.262621 0.100053,-1.080362 -1.090392,-2.04219 -1.117329,-0.902754 -1.851545,-2.108109 -2.27961,-3.742419 -0.322519,-1.231342 -0.331752,-1.203187 0.27747,-0.846159 1.319276,0.773147 3.286954,0.334706 5.03807,-1.122588 0.825282,-0.686807 1.621237,-1.102074 2.282887,-1.191032 0.949136,-0.127611 0.995303,-0.152813 1.122271,-0.612656 0.161916,-0.586411 0.05491,-0.738369 -0.750412,-1.065677 -2.087968,-0.848614 -3.579303,-3.416178 -2.72425,-4.69022 1.189509,-1.772385 6.272101,-1.756081 7.450036,0.0239 0.869621,1.314086 -0.713448,3.91098 -2.887776,4.737159 -1.135176,0.431333 -1.038062,1.548632 0.135742,1.561727 0.660686,0.0074 1.698341,0.497269 2.618307,1.236156 1.872777,1.504149 3.590934,1.890625 5.038999,1.133453 0.534528,-0.279497 0.6058,-0.292704 0.551218,-0.102143 -0.03448,0.120374 -0.149207,0.573763 -0.254952,1.007533 -0.399082,1.637044 -1.311229,2.996149 -2.698775,4.021189 -0.644102,0.475826 -0.644102,0.475826 -0.644102,1.733026 0,1.548177 -0.366302,1.404495 3.580612,1.404495 3.515254,0 3.63925,-0.02485 3.504936,-0.702365 -0.03587,-0.180936 0.01617,-0.718062 0.115644,-1.193612 0.591424,-2.827402 2.693865,-4.526957 5.88133,-4.75431 l 1.174231,-0.08375 0.03498,-0.984536 c 0.0908,-2.555936 -0.93071,-4.950958 -2.814874,-6.599747 -1.108777,-0.970265 -2.162331,-2.215567 -3.650807,-4.31525 -3.830947,-5.404038 -5.039096,-5.936575 -13.468081,-5.936575 -8.556514,0 -9.538965,0.44185 -13.555792,6.096617 -1.312859,1.8482 -1.927603,2.582907 -3.322054,3.970328 -2.350761,2.338908 -2.98498,3.705543 -3.009579,6.485127 l -0.01136,1.284036 1.082237,0.0824 c 3.648815,0.277806 6.015806,2.611071 6.015806,5.93009 0,0.350469 0.06002,0.604217 0.151668,0.641197 0.36298,0.146466 6.856182,0.08013 6.979951,-0.07131 z M 31.933372,61.974278 c 0,-0.03656 0.218403,-0.354227 0.485339,-0.705932 0.266937,-0.351707 0.629105,-1.021669 0.80482,-1.488805 0.175713,-0.467136 0.421413,-1.019584 0.546001,-1.227661 0.189162,-0.315933 0.306808,-0.779186 0.196186,-0.772524 -0.01668,9.71e-4 -0.248735,0.08051 -0.51567,0.176675 -2.33038,0.839549 -4.476493,-1.695814 -2.361326,-2.789609 1.100851,-0.569272 2.82743,0.110782 3.328999,1.311207 0.232609,0.556707 0.286733,0.55711 1.002956,0.0074 2.15596,-1.654574 6.215854,-1.703724 8.392188,-0.101596 0.907657,0.668178 0.915897,0.668288 1.20449,0.01588 0.853138,-1.92866 4.421342,-1.824943 4.105829,0.119345 -0.225296,1.38833 -1.879686,2.011853 -3.509395,1.322657 -0.326776,-0.138193 -0.269259,0.117061 0.336571,1.493635 0.50139,1.139267 0.745223,1.577196 1.360812,2.444043 0.213628,0.300823 0.213628,0.300823 -0.175809,0.02556 -0.56897,-0.40216 -1.066306,-1.051551 -1.497683,-1.955582 -1.348711,-2.826475 -2.811845,-3.719273 -6.060261,-3.697946 -3.029496,0.01989 -4.241226,0.727445 -5.590582,3.264469 -0.75705,1.423386 -2.053465,3.038795 -2.053465,2.558739 z m 1.329971,-5.765302 c 0.145013,-0.270961 0.06145,-0.567722 -0.186679,-0.662938 -0.253678,-0.09735 -0.51688,0.0368 -0.602694,0.307178 -0.159382,0.502167 0.541874,0.818215 0.789373,0.35576 z m 14.680096,0.0025 c 0.09362,-0.174938 0.0722,-0.295174 -0.08779,-0.492761 -0.243498,-0.300707 -0.582805,-0.235524 -0.700252,0.134523 -0.158801,0.500335 0.541598,0.81873 0.788046,0.358238 z m 9.845766,2.989652 c 0.237821,-0.889285 0.517042,-5.084126 0.518764,-7.793615 0.0042,-6.532407 -0.867644,-7.538505 -5.006189,-5.777397 -1.70683,0.726324 -5.958981,3.467291 -5.958981,3.841205 0,0.09681 0.34489,0.330815 0.774985,0.525829 2.218215,1.005787 3.403017,2.155223 5.956182,5.778392 1.247671,1.770558 3.140781,3.854745 3.447637,3.795617 0.09779,-0.01884 0.218214,-0.185356 0.267602,-0.370029 z m -34.699879,-0.78657 c 0.565361,-0.58392 1.66452,-1.962579 2.442577,-3.063685 2.226109,-3.150392 3.549219,-4.411845 5.605349,-5.344139 1.2314,-0.558344 1.255696,-0.517418 -1.327226,-2.23563 -3.680425,-2.448293 -6.718755,-3.481558 -7.653996,-2.602946 -1.039028,0.976116 -1.406162,5.964871 -0.855973,11.631269 0.312674,3.22023 0.271325,3.182906 1.789269,1.615131 z M 52.984833,43.134155 c -5.083424,-0.331365 -8.342844,-0.528625 -9.828059,-0.594792 -2.836165,-0.126355 -2.815676,-0.09401 -3.096619,-4.887788 -0.284142,-4.848332 -0.118987,-5.313607 1.94098,-5.468153 1.317546,-0.09885 1.212435,0.670295 1.214517,-8.887204 0.0021,-9.632162 0.07769,-9.072207 -1.225282,-9.075763 -0.657429,-0.0018 -0.700254,-0.02237 -1.233892,-0.592872 -0.731167,-0.781676 -0.74725,-0.9068 -0.751164,-5.8440155 -0.0046,-5.7647575 -0.6502,-5.265228 6.81155,-5.2701632 6.634146,-0.00439 5.459841,-0.7622031 8.831376,5.699157 0.20893,0.4004025 0.526228,1.0692565 0.705109,1.4863424 0.441641,1.0297533 0.662498,1.0190793 1.25523,-0.060667 0.424102,-0.7725641 2.19061,-3.7631648 3.046631,-5.1577786 1.278812,-2.0834167 0.951091,-2.0042087 8.360601,-2.0206999 l 4.746909,-0.010565 0.480692,0.5214895 0.480693,0.5214894 0.07868,4.3901203 c 0.08432,4.7047536 0.0835,4.7130846 -0.543465,5.4932546 -0.417054,0.518966 -0.91034,0.719913 -1.770036,0.72104 -1.118513,0.0015 -1.046709,-0.667097 -0.969605,9.027854 0.0372,4.678078 0.102963,8.593751 0.14613,8.701496 0.121084,0.302224 0.55135,0.444252 1.631182,0.538448 1.793253,0.156427 1.851574,0.294113 2.130195,5.02902 0.255583,4.343413 0.290042,3.935967 -0.389886,4.610211 l -0.576337,0.571518 -3.943357,0.07828 c -2.168847,0.04306 -5.472167,0.07807 -7.340712,0.07781 -5.339257,-7.28e-4 -5.036787,0.316092 -5.031743,-5.270722 l 0.0036,-4.010455 0.469296,-0.543019 c 0.469245,-0.542959 0.469397,-0.543023 1.397814,-0.589905 1.353045,-0.06833 1.299569,0.09457 1.255727,-3.825082 -0.04228,-3.780308 -0.249458,-4.373499 -1.066017,-3.052279 -0.318969,0.516102 -0.632312,0.625298 -2.246063,0.782714 -2.612606,0.254853 -3.139041,0.204867 -3.747302,-0.355808 -0.981163,-0.904405 -1.07867,-0.755515 -1.060756,1.619735 0.04011,5.317692 0.102952,5.538975 1.573071,5.538975 0.808063,0 1.356854,0.316758 1.734868,1.001355 0.116828,0.21158 0.259404,7.957301 0.151194,8.213895 -0.389721,0.924121 -0.968455,1.066743 -3.625772,0.893526 z m 2.50162,-1.508329 c 0.22754,-0.22754 0.248717,-0.349018 0.185077,-1.061673 -0.03952,-0.442603 -0.102436,-1.651038 -0.139805,-2.685411 -0.130157,-3.602889 -0.06544,-3.462965 -1.659368,-3.587656 -1.663343,-0.130121 -1.631016,-0.07647 -1.719572,-2.853946 -0.380589,-11.936894 -0.341981,-12.392611 0.849272,-10.024773 1.987396,3.950326 1.906697,3.886939 4.510607,3.542929 1.999423,-0.264151 1.874153,-0.131659 4.301176,-4.549107 0.539751,-0.982408 0.574384,-0.597825 0.574384,6.378462 0,7.565633 0.16545,6.847398 -1.577343,6.847398 -1.688046,0 -1.577343,-0.268392 -1.577343,3.824177 0,3.930905 -0.02448,3.83834 1.054345,3.98621 1.245783,0.170753 12.765356,-0.02373 13.714576,-0.231539 0.516187,-0.113007 0.540316,-0.359602 0.334979,-3.423502 -0.295225,-4.405159 -0.140618,-4.070086 -1.917943,-4.156719 -1.536929,-0.07492 -1.73261,-0.195883 -1.833207,-1.133261 -0.103311,-0.962659 -0.192246,-19.17177 -0.09437,-19.322676 0.185388,-0.285844 0.653866,-0.41215 1.528682,-0.41215 1.804107,0 1.773029,0.07847 1.773029,-4.4769639 0,-5.0816042 0.421547,-4.6402433 -4.368026,-4.5733416 -1.835178,0.025634 -4.055952,0.052227 -4.935054,0.059096 -2.012796,0.015726 -1.917003,-0.057161 -3.564472,2.7121641 -0.684825,1.151161 -1.472762,2.4752225 -1.750973,2.9423586 -0.912956,1.5329218 -1.356782,2.2959738 -1.713418,2.9458138 -0.492329,0.897092 -0.70538,0.833221 -1.326914,-0.397798 C 55.567587,10.850545 53.436783,6.7222899 52.6903,5.3005439 51.81499,3.6334329 52.380684,3.7706559 46.547132,3.8103647 c -4.639823,0.031583 -5.036307,0.050652 -5.236471,0.2518463 -0.198975,0.1999965 -0.215351,0.5153469 -0.201643,3.8826903 0.02032,4.9910427 0.04642,5.0603557 1.905543,5.0603557 1.358562,0 1.229342,-1.036618 1.267365,10.167 0.03903,11.501092 0.209149,10.338458 -1.512728,10.338458 -1.656773,0 -1.61532,-0.05747 -1.610894,2.233152 0.0058,3.025222 0.183212,4.94619 0.479044,5.188277 0.284514,0.232827 0.40485,0.244341 6.130123,0.586605 7.462211,0.446099 7.381089,0.444973 7.718985,0.107077 z M 14.461266,42.593811 C 13.360159,42.537549 11.80405,42.403176 11.003245,42.295203 10.20244,42.187231 8.9784214,42.031193 8.2832034,41.948453 6.2140693,41.702198 6.180024,41.640549 5.9687056,37.757407 5.6312042,31.555555 5.6136326,31.892979 6.321405,30.984619 c 0.4305539,-0.552578 0.8092432,-0.726526 1.7844927,-0.819696 1.5273026,-0.14591 1.3806714,0.649487 1.3806714,-7.489407 0,-8.325262 0.1309506,-7.60758 -1.3881033,-7.60758 -1.4583075,0 -1.8539524,-0.439412 -2.0757228,-2.305347 C 5.97912,12.395553 5.8650818,11.750742 5.7693249,11.329676 5.5503032,10.366583 5.2407102,7.190998 5.2402358,5.9026528 5.2396247,4.2434816 6.2371341,3.5291588 9.1225669,3.1224906 9.8900049,3.0143291 11.009312,2.844232 11.609915,2.7444968 13.125738,2.4927823 20.404411,2.3690653 22.529982,2.5588864 31.694407,3.3773028 35.97344,7.9243312 37.156338,18.101288 c 0.07369,0.633971 0.211816,1.589476 0.306951,2.123346 0.198592,1.114443 0.22695,3.45857 0.05623,4.647989 -0.06411,0.446625 -0.176476,1.631049 -0.249711,2.632056 -0.175769,2.402481 -0.310657,3.127143 -0.733211,3.939052 -0.193774,0.372326 -0.405613,0.948761 -0.470754,1.280969 -0.225224,1.148612 -1.407894,3.477766 -2.408803,4.743912 -1.040074,1.315686 -3.629852,3.564815 -4.104736,3.564815 -0.03907,0 -0.35197,0.143326 -0.695329,0.318502 -0.343361,0.175176 -0.979194,0.415517 -1.412963,0.534092 -0.43377,0.118575 -1.089525,0.301133 -1.457232,0.405684 -1.448108,0.411745 -6.690457,0.549157 -11.525514,0.302106 z m 9.60067,-1.364387 C 30.308225,40.453545 34.324983,36.368481 35.588654,29.506691 36.71141,23.410083 36.263889,16.087049 34.518674,11.997997 33.16994,8.8379009 30.508931,5.9792105 28.230052,5.2422051 27.964564,5.1563444 27.586605,5.0046162 27.390143,4.9050311 26.813668,4.6128208 24.328024,4.0355873 23.02056,3.890296 21.194519,3.6873782 12.516281,3.8257614 11.245913,4.0780545 10.712043,4.1840803 9.6661889,4.3759003 8.9217925,4.504321 7.4375269,4.7603814 6.6359543,5.0936937 6.4329503,5.5392388 c -0.1444936,0.317129 0.2514402,4.4437223 0.5591792,5.8280082 0.089013,0.400403 0.1995282,1.001006 0.245589,1.334675 0.1601138,1.159875 0.9272189,1.436484 2.6735198,0.964037 0.7565497,-0.204679 0.7246607,-0.570053 0.7607477,8.716455 0.03889,10.007594 0.234711,8.968188 -1.7096621,9.074786 -1.9634077,0.107643 -2.2204231,0.381803 -2.0957129,2.235516 0.4877511,7.25002 0.3707023,6.789843 1.7734857,6.972461 3.1293893,0.407393 3.9508163,0.488534 6.2458383,0.616968 1.401409,0.07843 2.575316,0.17039 2.608683,0.204363 0.113818,0.11589 5.152642,-0.08136 6.567318,-0.257084 z m -4.476858,-9.248779 c -0.620753,-0.278525 -0.825049,-3.75629 -0.703234,-11.971261 0.09864,-6.652536 0.04069,-6.480272 2.131462,-6.335168 3.853223,0.267421 5.642034,3.17132 5.642034,9.159101 0,5.057255 -1.258119,7.801283 -4.034974,8.800504 -0.908794,0.32702 -2.638848,0.524702 -3.035288,0.346824 z m 2.545979,-1.667527 c 2.389478,-1.008529 3.310942,-3.107108 3.310942,-7.540468 0,-4.883502 -1.423484,-7.45597 -4.307359,-7.784105 -1.113644,-0.126713 -1.03134,-0.752772 -1.03134,7.844981 0,8.986112 -0.158286,8.402257 2.027757,7.479592 z"
         id="path758" />
    </g>
  </g>
</svg>
